<?xml version="1.0" encoding="iso-8859-1"?>
<!-- Generator: Adobe Illustrator 19.0.0, SVG Export Plug-In . SVG Version: 6.00 Build 0)  -->
<svg version="1.1" id="Layer_1" xmlns="http://www.w3.org/2000/svg" xmlns:xlink="http://www.w3.org/1999/xlink" x="0px" y="0px"
	 viewBox="0 0 499.996 499.996" style="enable-background:new 0 0 499.996 499.996;" xml:space="preserve">
<g>
	<g>
		<path d="M256.836,0h-15.032C140.212,0,58.592,75.416,58.592,168.14v95.772c0,31.388,19.532,59.532,50.78,69.004v60.468
			c0,59.784,108.424,106.612,128.54,106.612h22.816c20.112,0,129.896-46.828,129.896-106.612v-60.468
			c31.248-9.468,50.78-37.62,50.78-69.004V168.14C441.408,75.416,358.428,0,256.836,0z M249.32,269.48
			c17.324,0,26.84,44.172,26.84,58.812c0,14.028-8.052,15.916-15.932,15.916c-1.548,0-3.216-0.064-4.976-0.136
			c-3.744-0.152-8.124-0.152-11.852,0c-1.764,0.076-3.428,0.136-4.984,0.136c-3.748,0-8.016-0.352-11.232-2.972
			c-3.208-2.608-4.7-6.724-4.7-12.944C222.484,313.652,232,269.48,249.32,269.48z M139.608,218.868
			c6.84-8.248,16.6-13.212,27.492-13.948l17.244-1.176c23.04-1.524,41.04,10.32,41.04,26.336c0,15.328-15.408,35.172-35.072,45.176
			l-14.96,7.604c-5.276,2.688-10.58,4.048-15.744,4.048c-14.584,0-25.264-10.6-27.236-27.004l-1.368-11.428
			C129.712,237.64,132.764,227.128,139.608,218.868z M365.32,344.72l-37.196,12.624v21.608c0,0.544-0.444,1.108-0.556,1.624
			c-0.872,18.8-17.732,29.58-45.88,29.58h-65.944c-22.008,0-43.868-10.756-43.868-31.204v-21.608l-37.792-12.624
			c-4.088-1.376-6.396-5.8-5.02-9.892c1.368-4.088,5.756-6.3,9.836-4.916l43.096,14.412c3.184,1.072,5.504,4.052,5.504,7.412v27.224
			c0,4.668,2.812,8.108,7.108,10.564c0.54-3.788,4.172-6.712,8.108-6.712c4.312,0,8.22,3.5,8.22,7.812v3.496
			c0,0.236,3,0.416,4.804,0.416h10.82v-3.916c0-4.312,3.5-7.812,7.812-7.812s7.812,3.5,7.812,7.812v3.916h15.624v-3.916
			c0-4.312,3.5-7.812,7.812-7.812s7.812,3.5,7.812,7.812v3.916h8.252c2.032,0,3.464-0.128,7.372-0.32v-3.592
			c0-4.312,3.152-7.812,7.464-7.812c4.236,0,7.488,3.372,7.616,7.58c4.464-2.328,7.928-5.908,7.928-11.428
			c0-0.48,0.424-0.948,0.424-1.408V351.74c0-3.36,1.752-6.34,4.936-7.412l42.716-14.412c4.096-1.384,8.62,0.828,9.988,4.916
			C371.52,338.916,369.412,343.344,365.32,344.72z M372.428,248.472l-1.368,11.424c-1.964,16.408-12.652,27.008-27.232,27.008
			c-5.168,0-10.464-1.36-15.748-4.048l-14.956-7.604c-19.668-10.004-35.072-29.844-35.072-45.176
			c0-16.016,18.052-27.848,41.036-26.336l17.248,1.176c10.888,0.74,20.648,5.7,27.492,13.952
			C370.676,227.128,373.728,237.64,372.428,248.472z"/>
	</g>
</g>
<g>
</g>
<g>
</g>
<g>
</g>
<g>
</g>
<g>
</g>
<g>
</g>
<g>
</g>
<g>
</g>
<g>
</g>
<g>
</g>
<g>
</g>
<g>
</g>
<g>
</g>
<g>
</g>
<g>
</g>
</svg>
