<?xml version="1.0" encoding="utf-8"?>
<!-- Generator: Adobe Illustrator 24.0.0, SVG Export Plug-In . SVG Version: 6.00 Build 0)  -->
<svg version="1.1" id="Warstwa_1" xmlns="http://www.w3.org/2000/svg" xmlns:xlink="http://www.w3.org/1999/xlink" x="0px" y="0px"
	 viewBox="0 0 416.1 364" style="enable-background:new 0 0 416.1 364;" xml:space="preserve">
<style type="text/css">
	.st0{clip-path:url(#SVGID_2_);}
	.st1{opacity:0;fill:#52C0D6;enable-background:new    ;}
	.st2{fill:#52C0D6;}
	.st3{fill:none;stroke:#35353D;stroke-width:2;stroke-miterlimit:10;}
	.st4{opacity:0.2;fill:#F5F5F5;enable-background:new    ;}
	.st5{fill:none;stroke:#535461;stroke-width:2;stroke-miterlimit:10;}
	.st6{opacity:1.000000e-02;fill:#52C0D6;enable-background:new    ;}
	.st7{fill:url(#SVGID_3_);}
	.st8{fill:#459FB1;}
	.st9{fill:#F7C4A7;}
	.st10{opacity:0.1;enable-background:new    ;}
	.st11{fill:#111126;}
	.st12{opacity:0.1;}
	.st13{fill:#413300;}
	.st14{fill:#453200;}
	.st15{fill:#337E8D;}
	.st16{fill:#969696;}
	.st17{fill:#C4C4C4;}
	.st18{fill:#FFFFFF;}
	.st19{opacity:0.1;fill:none;stroke:#000000;stroke-miterlimit:10;enable-background:new    ;}
	.st20{fill:#6A5C99;}
	.st21{fill:#3D3D3D;}
	.st22{fill:#212121;}
	.st23{fill:#292929;}
	.st24{fill:#D6D6E3;}
	.st25{opacity:0.8;fill:url(#SVGID_4_);enable-background:new    ;}
</style>
<title>lightProgrammer</title>
<g>
	<defs>
		<rect id="SVGID_1_" x="0.1" width="416" height="364"/>
	</defs>
	<clipPath id="SVGID_2_">
		<use xlink:href="#SVGID_1_"  style="overflow:visible;"/>
	</clipPath>
	<g class="st0">
		<path class="st1" d="M376.7,130.9h-24v12.5h24V130.9z"/>
		<path class="st1" d="M378.6,146.2h-24v12.5h24V146.2z"/>
		<path class="st1" d="M358.7,40.2h-24v12.5h24V40.2z"/>
		<path class="st1" d="M375.8,54.6h-24v12.5h24V54.6z"/>
		<path class="st1" d="M329.6,41.2h-24v12.5h24V41.2z"/>
		<path class="st1" d="M406.7,68.9h-24v12.5h24V68.9z"/>
		<path class="st1" d="M377.7,69.8h-24v12.5h24V69.8z"/>
		<path class="st1" d="M346.7,55.5h-24v12.4h24V55.5z"/>
		<path class="st1" d="M405.4,165.1h-24v12.5h24V165.1z"/>
		<path class="st1" d="M376.3,166.1h-24v12.5h24V166.1z"/>
		<path class="st2" d="M60.5,127.7c0,0,33.8,33.9,14.7,84.2s32.7,134,32.7,134s-0.6-0.1-1.6-0.3c-69.5-12.3-104-91.9-65.4-151
			C55.4,172.5,67.2,146.7,60.5,127.7z"/>
		<path class="st3" d="M60.5,127.7c0,0,19.1,41.5,0,75.4s-3.3,129,47.5,142.7"/>
		<path class="st2" d="M0.2,264.8c0,0,38.6-6.2,42.1,28.5s74.2,39.5,74.2,39.5l-1.3,0.9C56.9,372,1,358.1,9.5,307.1
			C12.6,288.1,12.3,269.1,0.2,264.8z"/>
		<path class="st4" d="M0.2,264.8c0,0,38.6-6.2,42.1,28.5s74.2,39.5,74.2,39.5l-1.3,0.9C56.9,372,1,358.1,9.5,307.1
			C12.6,288.1,12.3,269.1,0.2,264.8z"/>
		<path class="st5" d="M0.2,264.8c0,0,30,6.6,27.5,33.9s44.5,60,88.9,34.1"/>
		<path class="st1" d="M24.4,131.4h-24v12.5h24V131.4z"/>
		<path class="st1" d="M41.5,145.7h-24v12.5h24V145.7z"/>
		<path class="st6" d="M171.2,0h-24v12.5h24V0z"/>
		<path class="st1" d="M360.6,230.3h-24v12.5h24V230.3z"/>
		<path class="st1" d="M43.3,160.9h-24v12.5h24V160.9z"/>
		<path class="st6" d="M188.3,14.3h-24v12.5h24V14.3z"/>
		<path class="st1" d="M100.6,98.9h-24v12.5h24V98.9z"/>
		<path class="st1" d="M117.7,113.3h-24v12.5h24V113.3z"/>
		<path class="st1" d="M163.4,105.5h-24v12.5h24V105.5z"/>
		<path class="st1" d="M119.5,128.6H95.5v12.5h24L119.5,128.6z"/>
		<path class="st1" d="M392.9,230.3h-24v12.5h24V230.3z"/>
		
			<linearGradient id="SVGID_3_" gradientUnits="userSpaceOnUse" x1="212.804" y1="107.78" x2="212.804" y2="-143.16" gradientTransform="matrix(1 0 0 1 0.48 164.95)">
			<stop  offset="0" style="stop-color:#808080;stop-opacity:0.25"/>
			<stop  offset="0.54" style="stop-color:#808080;stop-opacity:0.12"/>
			<stop  offset="1" style="stop-color:#808080;stop-opacity:0.1"/>
		</linearGradient>
		<path class="st7" d="M332.9,180.9c-1.6-8.7-2.5-17.4-2.9-26.2c-0.6-14.8-10.5-27.7-24.7-32.1c-2.5-0.8-5.3-1.5-8.4-2.2
			c-26.9-5.7-35-0.7-36-0.1c-0.8-1.4-1.4-2.9-2-4.4c0-0.2-0.1-0.3-0.1-0.5c5.3-5.7,8.6-13,9.2-20.8c4.5-4.6,7.1-10,7.1-16
			c-0.1-5.1-2-10.1-5.3-14v-8c0-19.3-15.6-34.9-34.9-35h-2.8c-19.3,0-34.9,15.7-34.9,34.9c0,0,0,0,0,0.1v8.7
			c-3.1,3.8-4.8,8.5-4.8,13.3c0,5.8,2.5,11.2,6.8,15.7c0.6,8,4,15.6,9.6,21.4c0.2,1.3,0.4,2.7,0.6,4.2l-48.1,10.2
			c0,0-18.5,0.8-30.5,25.4c-10.1,20.9-30.2,74.6-36.1,90.6c-1.1,2.9-1.7,4.6-1.7,4.6s0.2-0.2,0.6-0.5l-0.6,1.6c0,0,0.3-0.3,0.8-0.8
			c-0.8,6.7-1,18.2,7.8,19.6c7.3,1.2,26.2,1.7,40.5,1.9h1c9.5,0.1,16.7,0.1,16.7,0.1v-0.1h153.5V271c0-1.4-0.3-2.8-0.8-4.2l0.2-0.3
			c0.8,1.1,1.4,2.4,1.6,3.7c0,0.1,0,0.3-0.1,0.4l0.1-0.2c0,0.4,0,0.8-0.1,1.3c0,0,19.7-50.8,19.5-81.2
			C333.7,187.3,333.4,184.1,332.9,180.9L332.9,180.9z M210.1,126.9c-0.3-1.5-0.4-2.9-0.5-4.4l0,0C209.8,123.9,210,125.4,210.1,126.9
			z M150.5,236.1v12.1l-7.6,1.6L150.5,236.1z"/>
		<path class="st2" d="M232.7,26.6c19.3,0,34.9,15.7,34.9,35c0,0,0,0,0,0v14.9h-69.8V61.6C197.8,42.3,213.4,26.6,232.7,26.6z"/>
		<path class="st8" d="M232.9,108.8c22,0,39.8-12.3,39.8-27.4S254.9,54,232.9,54s-39.8,12.2-39.8,27.4S211,108.8,232.9,108.8z"/>
		<path class="st9" d="M207.5,107.9c0,0,8.3,43.5,0,55.2s25.4,16.4,25.4,16.4l34.9-12.7l4.9-31.3c0,0-21.2-12-16.8-36.2L207.5,107.9
			z"/>
		<path class="st9" d="M310.4,254.6c0,0,2.2,9.5-9.8,11.2c-7.1,1-14.2,1-21.3-0.2l-2.6-24h27.8L310.4,254.6z"/>
		<path class="st9" d="M99.2,242.4c0,0-5.3,21.5,6.7,23.4s55.9,2,55.9,2v-25.5l-19.9,4.2l-18.7-17.9L99.2,242.4z"/>
		<path class="st10" d="M210,121.9l-46.7,9.9c0,0-17.8,0.7-29.3,24.4s-36.4,91.4-36.4,91.4s21.2-21.5,46.1,1.5l16.6-30.1l-3.7,47.7
			h128.6v-22.5c0,0,26.8,14.4,24.9,22.5c0,0,23-59.3,18-86.2c-1.5-8.3-2.4-16.8-2.7-25.2l0,0c-0.6-14.3-10.1-26.6-23.7-30.8
			c-2.4-0.8-5.1-1.4-8-2.1c-27.6-5.9-34.6,0-34.6,0s-5.4,17.4-5.3,25.3c0.1,10.1-14.4,16.9-14.4,16.9s-21.5-5.1-22.4-9.3
			S208.3,126.8,210,121.9z"/>
		<path class="st11" d="M210,120.9l-46.7,9.9c0,0-17.8,0.7-29.3,24.4s-36.4,91.4-36.4,91.4s21.2-21.5,46.1,1.5l16.6-30.1l-3.7,47.7
			h128.6v-22.5c0,0,26.8,14.4,24.9,22.5c0,0,23-59.3,18-86.2c-1.5-8.3-2.4-16.7-2.8-25.2c-0.6-14.3-10.1-26.6-23.7-30.8
			c-2.4-0.7-5.1-1.4-8-2.1c-27.6-5.9-34.6,0-34.6,0s-5.4,17.4-5.3,25.3c0.1,10.1-14.4,16.9-14.4,16.9s-21.5-5.1-22.4-9.3
			S208.3,125.9,210,120.9z"/>
		<path class="st10" d="M257.8,118.9c-2-5.6-2.4-11.6-1.3-17.4l-48.3,8.6c0,0,0.7,3.7,1.5,9.1c12.7,13.2,33.7,13.6,46.9,0.9
			C256.9,119.8,257.3,119.3,257.8,118.9L257.8,118.9z"/>
		<path class="st9" d="M266,93.9c0,18.3-14.9,33.2-33.2,33.2c-18,0-32.7-14.4-33.2-32.4v-0.8c0-12.7,7.2-24.3,18.6-29.9
			c1-0.5,2-0.9,3.1-1.3c5.5-2,11.4-2.6,17.1-1.6l0,0c15.1,2.6,26.5,15.2,27.5,30.6C266,92.5,266,93.2,266,93.9z"/>
		<g class="st12">
			<path class="st10" d="M221.3,63.6L221.3,63.6c-1,0.4-2,0.8-3,1.3c-11.4,5.6-18.6,17.2-18.6,29.9v0.8c1,0,2.1-0.3,3-0.7
				c8.1-3.8,12.9-15.3,14.9-23.4C218.2,68.5,218.8,65.2,221.3,63.6z"/>
			<path class="st10" d="M246.7,64.5c-2.6-1.2-5.4-2.1-8.2-2.5c2.3,0.5,4.4,1.9,5.9,3.7c0.7,1,1.4,2.1,1.8,3.3
				c-8.9-3.9-19.1-3.7-27.9,0.6c2.1,4.6,8.5,7.1,12.9,8.7c4.7,1.8,9.5,3.5,14.3,5l-4.3-3.5l9.6,1.5c0.1-1.9-0.1-3.8-0.7-5.7
				c1.9,1.5,4.3,2,6.3,3.2c3.8,2.4,5.3,6.9,7.4,10.9c0.5,1.1,1.2,2,2.2,2.8C265.1,80.4,257.7,69.7,246.7,64.5L246.7,64.5z"/>
		</g>
		<path class="st13" d="M221.3,62.8L221.3,62.8c-1,0.4-2,0.8-3,1.3c-11.4,5.6-18.6,17.2-18.6,29.8v0.8c1,0,2.1-0.3,3-0.7
			c8.1-3.8,12.9-15.3,14.9-23.4C218.2,67.8,218.8,64.5,221.3,62.8z"/>
		<path class="st14" d="M246.7,63.8c-2.6-1.2-5.4-2.1-8.2-2.5c2.3,0.5,4.4,1.9,5.9,3.7c0.7,1,1.4,2.1,1.8,3.2
			c-8.9-3.9-19.1-3.7-27.9,0.6c2.1,4.6,8.5,7.1,12.9,8.7c4.7,1.8,9.5,3.5,14.3,5l-4.3-3.5l9.6,1.5c0.1-1.9-0.1-3.8-0.7-5.7
			c1.9,1.5,4.3,2,6.3,3.2c3.8,2.4,5.3,6.9,7.4,10.9c0.5,1.1,1.2,2,2.2,2.8C265.1,79.6,257.7,68.9,246.7,63.8L246.7,63.8z"/>
		<path class="st10" d="M195.8,88.5c0,0,34.2-42.5,73.7,0l-3.4-9.5c0,0-18.5-27.1-31.7-21.3s-26.1,10-26.1,10L195.8,88.5z"/>
		<path class="st15" d="M195.8,87.7c0,0,34.2-42.5,73.7,0l-3.4-9.5c0,0-18.5-27.1-31.7-21.3s-26.1,10-26.1,10L195.8,87.7z"/>
		<path class="st10" d="M167.8,179.4c0,0-7.3,19.6,2.9,37.2s-9,24.9-9,24.9"/>
		<path class="st10" d="M286.4,161.8c0,0,12.7,16.1,4.4,30.6s-7.8,49.1-7.8,49.1"/>
		<path class="st16" d="M156.6,255.9h141c6.5,0,11.7,5.3,11.7,11.7H144.8C144.8,261.2,150.1,256,156.6,255.9z"/>
		<path class="st17" d="M170.8,175.2h112.4c9.9,0,18,8.1,18,18v65.3H152.8v-65.3c-0.2-4.7,1.6-9.2,4.9-12.6
			C161.2,177.2,165.9,175.2,170.8,175.2L170.8,175.2z"/>
		<path class="st18" d="M227,229.4c4.9,0,8.8-3.9,8.8-8.8c0-4.9-3.9-8.8-8.8-8.8s-8.8,3.9-8.8,8.8c0,0,0,0,0,0
			C218.2,225.4,222.1,229.4,227,229.4L227,229.4z"/>
		<path class="st19" d="M197.8,68.5c0,0,33.6-33.6,69.8-0.6"/>
		<path class="st20" d="M276.1,66.4h-3.4v19.1h3.4V66.4z"/>
		<path class="st21" d="M268.2,78.8c6.4,0,11.6,5.2,11.6,11.6l0,0v0.8c0,6.4-5.2,11.6-11.6,11.6l0,0l0,0V78.8z"/>
		<path class="st22" d="M271.2,80.3c0.1-1.4-1-2.7-2.5-2.8c-1.4-0.1-2.7,1-2.8,2.5c0,0.1,0,0.2,0,0.3v21c0.1,1.4,1.3,2.6,2.8,2.5
			c1.3-0.1,2.4-1.1,2.5-2.5V80.3z"/>
		<path class="st20" d="M189,85.9h3.4V66.8H189V85.9z"/>
		<path class="st21" d="M196.8,103.2c-6.4,0-11.6-5.2-11.6-11.6v-0.8c0-6.4,5.2-11.6,11.6-11.6c0,0,0,0,0,0l0,0V103.2z"/>
		<path class="st22" d="M193.8,101.7c0,1.4,1.2,2.6,2.6,2.6c1.4,0,2.6-1.2,2.6-2.6v-21c0-1.4-1.2-2.6-2.6-2.6
			c-1.4,0-2.6,1.2-2.6,2.6l0,0V101.7z"/>
		<path class="st23" d="M272.3,46c-4.6-9.5-14.5-21-36-21.9l0,0h-0.3l-7.6,0.3l0,0c-21.3,1-31.2,12.4-35.8,21.9
			c-3,6.4-4.6,13.4-4.7,20.5l2.6-0.1l2.6-0.1c0.1-6.3,1.6-12.6,4.3-18.3c5.8-11.9,16.4-18.2,31.6-18.8l6.7-0.4
			c15.2,0.6,25.9,6.9,31.6,18.8c2.7,5.7,4.2,12,4.3,18.3l2.6,0.1l2.6,0.1C276.9,59.4,275.3,52.4,272.3,46z"/>
		<path class="st24" d="M392.1,267.8H34.4V364h357.7V267.8z"/>
		<path class="st10" d="M392.1,274.3H34.4v12.5h357.7V274.3z"/>
		<path class="st24" d="M416.1,266.4H10.4V279h405.7V266.4z"/>
	</g>
</g>
<linearGradient id="SVGID_4_" gradientUnits="userSpaceOnUse" x1="226.7" y1="106.35" x2="226.7" y2="316.55" gradientTransform="matrix(1 0 0 -1 0.48 364.95)">
	<stop  offset="0" style="stop-color:#FFFFFF"/>
	<stop  offset="1" style="stop-color:#FFFFFF;stop-opacity:0"/>
</linearGradient>
<path class="st25" d="M301.3,258.6v-65.3c-0.1-10-8.3-18.2-18-18c-3.6,0.1-105.8,0-112.4,0c-5.6,0-17.8,3.7-18,18v65.3L52.5,48.4
	h349.4L301.3,258.6z"/>
</svg>
