<svg width="548" height="365" viewBox="0 0 548 365" fill="none" xmlns="http://www.w3.org/2000/svg">
<g clip-path="url(#clip0)">
<path d="M498.801 118.345L191.082 25.8532L116.766 273.032L424.486 365.524L498.801 118.345Z" fill="#F1F1F1"/>
<path d="M278.901 83.1808H0V278.415H278.901V83.1808Z" fill="#52C1D7"/>
<path d="M233.47 83.1808H0V233.592H233.47V83.1808Z" fill="#111126"/>
<path d="M233.771 233.893L259.625 259.743" stroke="#111126" stroke-width="2" stroke-miterlimit="10"/>
<path d="M253.325 260.404L253.368 259.2L259.298 259.417L259.081 253.488L260.285 253.445L260.548 260.667L253.325 260.404Z" fill="#111126"/>
<path d="M543.059 129.207H393.831V262.17H543.059V129.207Z" fill="#111126"/>
<path d="M480.48 129.207H393.831V188.77H480.48V129.207Z" fill="#52C1D7"/>
<path d="M294.046 195.388H372.669" stroke="#111126" stroke-width="2" stroke-miterlimit="10"/>
<path d="M298.033 200.309L298.854 199.427L294.508 195.389L298.854 191.349L298.033 190.468L292.741 195.389L298.033 200.309Z" fill="#111126"/>
<path d="M368.681 200.309L367.86 199.427L372.207 195.389L367.86 191.349L368.681 190.468L373.974 195.389L368.681 200.309Z" fill="#111126"/>
<path d="M333.357 202.006C337.013 202.006 339.976 199.043 339.976 195.388C339.976 191.733 337.013 188.77 333.357 188.77C329.702 188.77 326.738 191.733 326.738 195.388C326.738 199.043 329.702 202.006 333.357 202.006Z" fill="#111126"/>
<path d="M350.506 198.998C352.5 198.998 354.117 197.381 354.117 195.388C354.117 193.394 352.5 191.778 350.506 191.778C348.512 191.778 346.896 193.394 346.896 195.388C346.896 197.381 348.512 198.998 350.506 198.998Z" fill="#52C1D7"/>
<path d="M315.606 198.998C317.6 198.998 319.217 197.381 319.217 195.388C319.217 193.394 317.6 191.778 315.606 191.778C313.612 191.778 311.996 193.394 311.996 195.388C311.996 197.381 313.612 198.998 315.606 198.998Z" fill="#52C1D7"/>
<path d="M543.059 262.17L490.322 196.406" stroke="#52C1D7" stroke-width="2" stroke-miterlimit="10"/>
<path d="M496.656 196.438L496.483 197.63L490.612 196.765L490.178 202.683L488.977 202.594L489.507 195.387L496.656 196.438Z" fill="#52C1D7"/>
<path d="M130.796 330.611C135.699 330.611 139.674 326.636 139.674 321.733C139.674 316.83 135.699 312.856 130.796 312.856C125.892 312.856 121.917 316.83 121.917 321.733C121.917 326.636 125.892 330.611 130.796 330.611Z" fill="#F1F1F1"/>
<path d="M454.525 47.8375C459.429 47.8375 463.404 43.8629 463.404 38.9599C463.404 34.0569 459.429 30.0823 454.525 30.0823C449.621 30.0823 445.646 34.0569 445.646 38.9599C445.646 43.8629 449.621 47.8375 454.525 47.8375Z" fill="#F1F1F1"/>
<path d="M145.237 17.7552C150.141 17.7552 154.116 13.7806 154.116 8.87761C154.116 3.97464 150.141 0 145.237 0C140.333 0 136.358 3.97464 136.358 8.87761C136.358 13.7806 140.333 17.7552 145.237 17.7552Z" fill="#F1F1F1"/>
</g>
<defs>
<clipPath id="clip0">
<rect width="548" height="365" fill="white"/>
</clipPath>
</defs>
</svg>
