<svg width="149" height="475" viewBox="0 0 149 475" fill="none" xmlns="http://www.w3.org/2000/svg">
<path d="M24.2219 88.9101L16.1479 87.9009C16.1479 87.9009 14.1294 88.9101 13.1202 95.9748C12.1109 103.04 0 165.613 0 165.613L16.1479 242.315L34.3143 218.093L23.2126 175.705L34.3143 133.317L24.2219 88.9101Z" fill="#FF2A6D"/>
<path d="M127.165 87.9014H133.22L148.359 169.649L134.23 233.232L120.1 210.019L124.137 184.788L122.119 162.585L115.054 149.464L127.165 87.9014Z" fill="#52C1D7"/>
<path d="M46.4247 406.822L40.3698 419.942L29.2678 418.933L22.2038 395.72L33.3047 389.665L46.4247 406.822Z" fill="#FFB8B8"/>
<path d="M84.5378 437.039L84.7768 446.182L67.6198 447.192V436.09L84.5378 437.039Z" fill="#FFB8B8"/>
<path d="M78.7208 270.574L74.6838 351.313L84.7768 439.118L54.4988 443.155L35.3238 332.138L29.2678 256.444L78.7208 270.574Z" fill="#282850"/>
<path d="M126.156 241.306C126.156 241.306 138.267 321.036 113.035 347.276C87.8043 373.517 53.49 419.942 53.49 419.942L29.2681 389.665L90.832 324.064L78.7211 279.657L29.2681 256.444L37.342 200.936L110.008 199.927L126.156 241.306Z" fill="#2C2C5F"/>
<path d="M66.6101 56.6142C78.8727 56.6142 88.8135 46.6734 88.8135 34.4108C88.8135 22.1482 78.8727 12.2074 66.6101 12.2074C54.3475 12.2074 44.4067 22.1482 44.4067 34.4108C44.4067 46.6734 54.3475 56.6142 66.6101 56.6142Z" fill="#F7C4A7"/>
<path d="M85.7858 39.457C85.7858 39.457 86.7951 70.7436 91.8413 74.7806C96.8875 78.8176 73.6749 95.9747 73.6749 95.9747L58.5362 71.7528V49.5495L85.7858 39.457Z" fill="#F7C4A7"/>
<path d="M75.6938 81.8453L87.9468 63.3433L94.8688 72.7623L104.962 101.021L96.8878 211.028L49.4528 212.038L43.3978 85.8823L58.5358 67.7163L75.6938 81.8453Z" fill="white"/>
<path d="M37.342 415.905C37.342 415.905 43.3975 413.887 43.3975 417.924C43.3975 421.961 39.3605 434.072 39.3605 434.072C39.3605 434.072 45.4159 471.414 36.3327 469.395C27.2495 467.377 20.1849 450.22 19.1756 445.173C18.1664 440.127 13.1201 413.887 13.1201 413.887C13.1201 413.887 5.04617 394.711 10.0924 393.702C15.1387 392.693 29.268 388.656 29.268 388.656C29.268 388.656 21.1941 413.887 37.342 415.905Z" fill="black"/>
<path d="M66.6101 447.192C66.6101 447.192 82.758 437.099 85.7857 445.173C87.7938 451.062 89.1476 457.154 89.8227 463.34C89.8227 463.34 93.8598 476.46 77.7118 474.441C61.5639 472.423 63.5824 472.423 62.5732 466.367C61.5639 460.312 66.6101 447.192 66.6101 447.192Z" fill="black"/>
<path d="M79.7303 34.4107L75.6933 33.4015C75.6933 33.4015 72.6656 16.2443 65.6009 18.2628C58.5362 20.2813 40.3698 22.2998 40.3698 14.2258C40.3698 6.15184 57.5269 -0.912832 67.6194 0.0964178C77.7118 1.10567 94.869 4.13341 93.8597 19.272C92.8505 34.4107 86.3381 49.1374 86.3381 49.1374L85.812 40.1618L79.7303 34.4107Z" fill="#453200"/>
<path d="M17.1572 87.9009L49.453 74.7807L57.0223 69.2299L79.7303 169.65L94.869 124.234L90.3274 66.2021L132.211 87.9009L118.082 156.53L116.063 182.77L122.119 203.964C122.119 203.964 143.313 219.103 136.248 235.251C129.183 251.398 121.109 252.408 121.109 252.408C121.109 252.408 86.795 220.112 84.7766 212.038C82.7581 203.964 79.7303 189.835 79.7303 189.835C79.7303 189.835 62.5731 254.426 42.3883 253.417C22.2035 252.408 22.2034 231.214 22.2034 231.214L27.2496 209.01L35.3236 185.798L31.2866 147.446L17.1572 87.9009Z" fill="#1B1B39"/>
</svg>
