<svg width="598" height="451" viewBox="0 0 598 451" fill="none" xmlns="http://www.w3.org/2000/svg">
<g clip-path="url(#clip0)">
<path d="M420.65 290.288C420.65 290.288 432.451 370.963 501.5 397.769L361.714 397.959L221.928 398.15C290.903 371.16 302.499 290.427 302.499 290.427L420.65 290.288Z" fill="#E0E0E0"/>
<path d="M502.738 397.757L220.538 398.15L220.562 415.195L502.762 414.802L502.738 397.757Z" fill="url(#paint0_linear)"/>
<path d="M501.504 397.759L221.94 398.148L221.959 411.295L501.523 410.906L501.504 397.759Z" fill="#F5F5F5"/>
<path d="M588.519 -5.79706e-06L133.866 0.622886C128.836 0.622886 124.76 4.89516 124.767 10.1494L125.12 274.833V283.626C125.12 303.735 140.785 320.018 160.04 319.988L563.175 319.431C582.438 319.431 598.029 303.082 598 282.974V274.18L597.647 9.4972C597.64 4.24296 593.549 -0.00733389 588.519 -5.79706e-06Z" fill="url(#paint1_linear)"/>
<path d="M138.207 8.64716H583.87C585.964 8.64716 587.972 9.47712 589.453 10.9545C590.933 12.4318 591.765 14.4356 591.765 16.5249V269.549H130.305V16.5249C130.305 14.4356 131.136 12.4318 132.617 10.9545C134.097 9.47712 136.106 8.64716 138.199 8.64716H138.207Z" fill="white"/>
<path d="M562.11 311.612L161.127 312.162C157.156 312.173 153.221 311.402 149.548 309.894C145.875 308.386 142.536 306.17 139.722 303.374C136.907 300.577 134.673 297.255 133.147 293.596C131.62 289.937 130.832 286.014 130.826 282.051V269.175L592.286 268.538V281.421C592.296 289.417 589.123 297.09 583.464 302.752C577.805 308.414 570.124 311.601 562.11 311.612Z" fill="#F5F5F5"/>
<path d="M571.084 28.7306L153.49 29.3124L153.784 239.929L571.379 239.347L571.084 28.7306Z" fill="#111126"/>
<path d="M276.711 108.634L84.5482 108.902C77.5841 108.912 71.9465 114.553 71.9562 121.502L72.3915 432.579C72.4012 439.528 78.0546 445.154 85.0187 445.144L277.182 444.876C284.146 444.866 289.783 439.225 289.774 432.276L289.338 121.199C289.329 114.25 283.675 108.625 276.711 108.634Z" fill="url(#paint2_linear)"/>
<path d="M256.78 104.22L227.024 116.151L256.78 128.325V141.412L209.304 122.299V110.124L256.78 91.1328V104.22Z" fill="#52C0D6"/>
<path d="M304.196 130.942C301.971 133.901 299.027 136.247 295.641 137.76C292.308 139.368 288.652 140.201 284.948 140.195C281.567 140.233 278.208 139.634 275.05 138.429C272.057 137.341 269.314 135.664 266.984 133.499C264.705 131.295 262.878 128.669 261.607 125.768C260.281 122.565 259.616 119.129 259.652 115.664C259.61 112.198 260.275 108.76 261.607 105.559C262.857 102.647 264.686 100.017 266.984 97.8285C269.311 95.6439 272.053 93.9466 275.05 92.8371C278.22 91.6814 281.573 91.1041 284.948 91.1327C287.989 91.074 291.008 91.6548 293.808 92.8371C296.436 93.9392 298.761 95.6505 300.591 97.8285C302.502 100.107 303.955 102.732 304.868 105.559C305.885 108.83 306.38 112.24 306.334 115.664V120.168H273.706C274.131 122.715 275.426 125.037 277.372 126.742C279.301 128.408 281.785 129.298 284.337 129.238C286.487 129.328 288.614 128.777 290.448 127.655C292.051 126.536 293.455 125.157 294.603 123.577L304.196 130.942ZM292.281 110.368C292.326 108.116 291.494 105.934 289.959 104.281C289.174 103.452 288.227 102.792 287.176 102.342C286.125 101.891 284.993 101.661 283.849 101.663C282.425 101.655 281.014 101.924 279.694 102.455C278.566 102.943 277.533 103.623 276.639 104.463C275.832 105.257 275.171 106.184 274.683 107.203C274.211 108.259 273.941 109.395 273.889 110.551L292.281 110.368Z" fill="white"/>
<path d="M307.984 92.2891H322.098V99.7762C323.315 97.2083 325.139 94.9732 327.414 93.263C329.742 91.7751 332.471 91.0317 335.235 91.1325H337.618C338.368 91.1742 339.108 91.3176 339.818 91.5586V104.768L336.885 104.037C335.868 103.972 334.847 103.972 333.83 104.037C331.734 103.99 329.652 104.385 327.72 105.194C326.229 105.898 324.976 107.019 324.115 108.42C323.207 109.944 322.644 111.648 322.465 113.411C322.219 115.431 322.096 117.464 322.098 119.498V139.281H307.984V92.2891Z" fill="white"/>
<path d="M342.812 92.2893H356.316V98.3764C356.843 97.4149 357.478 96.5163 358.21 95.6981C359.062 94.7473 360.05 93.9268 361.143 93.2632C362.345 92.528 363.639 91.9549 364.992 91.5589C366.492 91.0813 368.062 90.8551 369.636 90.8893C372.616 90.7664 375.585 91.3287 378.312 92.5328C380.396 93.6108 382.149 95.2303 383.384 97.2199C384.671 99.3675 385.522 101.746 385.889 104.22C386.332 107.202 386.536 110.215 386.5 113.229V139.282H372.63V116.151C372.63 114.812 372.63 113.412 372.63 111.951C372.575 110.573 372.286 109.214 371.775 107.933C371.36 106.757 370.618 105.723 369.636 104.95C368.412 104.129 366.955 103.723 365.481 103.794C363.947 103.73 362.425 104.088 361.082 104.829C359.974 105.462 359.065 106.389 358.454 107.507C357.867 108.717 357.476 110.011 357.293 111.342C357.199 112.801 357.199 114.265 357.293 115.725V139.282H342.812V92.2893Z" fill="white"/>
<path d="M435.687 130.942C433.462 133.901 430.519 136.247 427.133 137.76C423.8 139.368 420.144 140.201 416.44 140.195C413.058 140.233 409.7 139.634 406.542 138.429C403.635 137.312 400.978 135.637 398.72 133.499C396.441 131.295 394.614 128.669 393.343 125.768C392.017 122.565 391.352 119.129 391.388 115.664C391.346 112.198 392.011 108.76 393.343 105.559C394.593 102.647 396.422 100.017 398.72 97.8285C401.047 95.6439 403.789 93.9466 406.786 92.8371C409.956 91.6814 413.309 91.1041 416.684 91.1327C419.725 91.074 422.744 91.6548 425.544 92.8371C428.172 93.9392 430.497 95.6505 432.327 97.8285C434.239 100.107 435.691 102.732 436.604 105.559C437.621 108.83 438.116 112.24 438.07 115.664V120.168H405.197C405.622 122.715 406.917 125.037 408.863 126.742C410.793 128.408 413.276 129.298 415.829 129.238C417.981 129.351 420.115 128.798 421.939 127.655C423.575 126.554 425.002 125.173 426.155 123.577L435.687 130.942ZM423.772 110.368C423.818 108.116 422.986 105.934 421.45 104.281C420.666 103.452 419.718 102.792 418.668 102.342C417.617 101.891 416.484 101.661 415.34 101.663C413.917 101.655 412.505 101.924 411.185 102.455C410.058 102.943 409.024 103.623 408.13 104.463C407.324 105.257 406.662 106.184 406.175 107.203C405.702 108.259 405.433 109.395 405.381 110.551L423.772 110.368Z" fill="white"/>
<path d="M468.743 106.046C467.802 104.791 466.574 103.777 465.16 103.089C463.747 102.401 462.19 102.058 460.617 102.089C459.405 102.096 458.211 102.388 457.134 102.942C456.586 103.216 456.131 103.645 455.827 104.176C455.522 104.706 455.382 105.315 455.423 105.924C455.424 106.479 455.594 107.02 455.91 107.477C456.227 107.934 456.675 108.284 457.195 108.481C458.609 109.114 460.083 109.603 461.594 109.942L467.277 111.281C469.295 111.738 471.231 112.497 473.021 113.533C474.796 114.572 476.302 116.01 477.42 117.733C478.685 119.866 479.3 122.319 479.192 124.794C479.283 127.426 478.604 130.027 477.237 132.281C475.965 134.197 474.272 135.8 472.287 136.968C470.207 138.178 467.933 139.022 465.566 139.464C463.131 139.945 460.655 140.19 458.173 140.195C454.905 140.177 451.656 139.706 448.519 138.795C445.355 137.965 442.494 136.254 440.27 133.864L448.763 124.125C449.952 125.672 451.45 126.957 453.162 127.899C454.863 128.831 456.782 129.294 458.723 129.238C460.221 129.258 461.711 129.011 463.122 128.507C463.708 128.354 464.223 128.004 464.579 127.515C464.935 127.027 465.111 126.432 465.077 125.829C465.094 125.256 464.94 124.69 464.636 124.203C464.332 123.716 463.89 123.329 463.366 123.09C461.967 122.408 460.49 121.897 458.967 121.568L453.223 120.229C451.266 119.733 449.378 118.997 447.602 118.038C445.805 117.082 444.289 115.676 443.203 113.959C441.959 111.82 441.365 109.367 441.492 106.898C441.421 104.524 441.941 102.169 443.008 100.044C444.074 97.9198 445.653 96.0918 447.602 94.724C449.455 93.435 451.524 92.4867 453.712 91.9239C456.005 91.3176 458.367 91.0106 460.739 91.0109C463.823 91.0121 466.89 91.4633 469.843 92.35C472.83 93.1991 475.518 94.865 477.603 97.1588L468.743 106.046Z" fill="white"/>
<path d="M514.814 103.794H502.594V119.377C502.525 120.553 502.525 121.731 502.594 122.907C502.684 123.87 502.976 124.803 503.449 125.646C503.887 126.457 504.603 127.083 505.466 127.412C506.605 127.89 507.835 128.118 509.071 128.081H512.004C513.052 127.918 514.029 127.452 514.814 126.742V138.916C513.244 139.516 511.6 139.905 509.926 140.073C508.283 140.261 506.631 140.363 504.977 140.377C502.676 140.324 500.394 139.955 498.195 139.282C496.3 138.822 494.514 137.994 492.94 136.847C491.414 135.714 490.213 134.203 489.457 132.464C488.546 130.416 488.107 128.19 488.174 125.951V103.794H479.192V92.2892H488.174V83.6455L502.227 78.4106V92.2892H514.448L514.814 103.794Z" fill="white"/>
<path d="M470.088 131.307H477.787L456.462 190.839L448.152 187.978L470.088 131.307Z" fill="#52C0D6"/>
<path d="M477.725 169.291L500.944 160.221L477.725 151.151V141.047L514.814 155.534V164.725L477.725 179.213V169.291Z" fill="#52C0D6"/>
<path d="M230.751 142.812H241.749V148.534C242.733 146.574 244.18 144.882 245.965 143.603C247.79 142.457 249.919 141.885 252.076 141.96H253.97C254.57 141.991 255.165 142.093 255.742 142.264V152.247C254.982 152.007 254.206 151.824 253.42 151.699C252.627 151.634 251.83 151.634 251.037 151.699C249.339 151.625 247.646 151.937 246.088 152.612C244.915 153.131 243.918 153.977 243.216 155.047C242.561 156.217 242.127 157.496 241.933 158.821C241.833 160.422 241.833 162.028 241.933 163.63V178.421H230.751V142.812Z" fill="white"/>
<path d="M294.847 178.3H284.337V173.491C283.892 174.347 283.315 175.127 282.627 175.804C281.968 176.521 281.206 177.137 280.366 177.63C279.437 178.201 278.428 178.632 277.372 178.909C276.187 179.287 274.949 179.472 273.706 179.457C271.377 179.552 269.057 179.114 266.923 178.178C265.292 177.374 263.901 176.156 262.891 174.648C261.88 173.018 261.234 171.191 260.996 169.291C260.67 167.094 260.507 164.877 260.508 162.656V142.812H271.506V160.221C271.506 161.256 271.506 162.291 271.506 163.387C271.564 164.431 271.791 165.458 272.178 166.43C272.511 167.441 273.187 168.304 274.091 168.871C274.995 169.438 276.069 169.673 277.127 169.535C278.312 169.588 279.49 169.336 280.549 168.804C281.378 168.285 282.069 167.575 282.565 166.734C283.06 165.852 283.372 164.879 283.482 163.874C283.545 162.758 283.545 161.641 283.482 160.526V142.812H294.847V178.3Z" fill="white"/>
<path d="M337.068 178.3H326.987V173.673C326.559 174.454 326.024 175.171 325.398 175.804C324.649 176.522 323.807 177.136 322.893 177.63C321.918 178.197 320.87 178.628 319.777 178.908C318.631 179.273 317.435 179.458 316.233 179.456C313.763 179.498 311.311 179.043 309.023 178.117C306.915 177.236 305.017 175.925 303.449 174.268C301.881 172.612 300.678 170.647 299.918 168.499C299.092 166.132 298.679 163.641 298.696 161.134C298.684 158.717 299.055 156.314 299.796 154.012C300.495 151.804 301.593 149.741 303.035 147.925C304.423 146.174 306.173 144.741 308.167 143.725C310.254 142.626 312.59 142.081 314.95 142.142C317.131 142.129 319.299 142.479 321.365 143.177C323.325 143.879 325.028 145.151 326.253 146.829V128.568L337.252 123.151L337.068 178.3ZM326.987 160.586C327.086 158.198 326.254 155.864 324.665 154.073C323.833 153.204 322.826 152.521 321.709 152.07C320.592 151.619 319.392 151.409 318.188 151.456C316.992 151.386 315.795 151.572 314.678 152.003C313.56 152.433 312.549 153.098 311.711 153.951C310.913 154.831 310.297 155.86 309.898 156.977C309.5 158.095 309.327 159.28 309.389 160.464C309.27 162.856 310.105 165.197 311.711 166.978C312.554 167.82 313.568 168.473 314.685 168.893C315.802 169.313 316.997 169.49 318.188 169.413C319.379 169.486 320.572 169.307 321.689 168.888C322.805 168.468 323.82 167.817 324.665 166.978C326.214 165.212 327.043 162.931 326.987 160.586Z" fill="white"/>
<path d="M339.696 167.404L358.026 151.578H340.185V142.812H370.736V153.343L351.611 169.717H371.408V178.483H339.696V167.404Z" fill="white"/>
<path d="M373.791 156.873L384.484 148.656V178.117H373.791V156.873Z" fill="white"/>
<path d="M423.161 171.787C421.376 174.004 419.095 175.776 416.501 176.961C413.875 178.162 411.02 178.784 408.13 178.787C405.483 178.813 402.854 178.359 400.37 177.448C398.103 176.604 396.027 175.321 394.26 173.674C392.44 171.963 391.004 169.888 390.044 167.586C388.985 165.17 388.464 162.553 388.516 159.917C388.464 157.28 388.985 154.664 390.044 152.247C391.018 149.953 392.453 147.881 394.26 146.16C396.041 144.531 398.114 143.25 400.37 142.386C402.865 141.523 405.489 141.091 408.13 141.108C410.494 141.074 412.841 141.508 415.035 142.386C417.062 143.242 418.876 144.531 420.351 146.16C421.861 147.94 422.985 150.013 423.65 152.247C424.469 154.72 424.861 157.313 424.811 159.917V163.63H399.515C399.853 165.579 400.869 167.346 402.387 168.621C403.896 169.911 405.838 170.585 407.825 170.508C409.437 170.541 411.026 170.119 412.407 169.291C413.67 168.464 414.768 167.412 415.646 166.186L423.161 171.787ZM413.874 156.143C413.897 155.27 413.747 154.402 413.432 153.587C413.118 152.772 412.645 152.027 412.041 151.395C411.404 150.732 410.634 150.21 409.782 149.864C408.929 149.517 408.012 149.355 407.091 149.386C405.984 149.388 404.886 149.595 403.853 149.995C402.974 150.356 402.167 150.871 401.47 151.517C400.842 152.111 400.325 152.812 399.943 153.586C399.589 154.396 399.382 155.261 399.332 156.143H413.874Z" fill="white"/>
<path d="M452.429 153.83C451.754 153.059 450.917 152.447 449.977 152.037C449.037 151.626 448.017 151.428 446.991 151.456C445.796 151.394 444.601 151.584 443.485 152.014C442.369 152.444 441.357 153.104 440.514 153.951C438.925 155.742 438.093 158.076 438.192 160.465C438.105 162.851 438.936 165.181 440.514 166.978C441.36 167.817 442.374 168.468 443.49 168.888C444.607 169.308 445.8 169.487 446.991 169.413C448.103 169.442 449.201 169.168 450.168 168.621C451.014 168.11 451.776 167.474 452.429 166.734L459.823 174.039C458.151 175.779 456.041 177.041 453.712 177.691C451.562 178.396 449.316 178.765 447.052 178.787C444.425 178.813 441.816 178.359 439.353 177.448C437.079 176.619 435 175.334 433.243 173.674C431.384 171.997 429.94 169.914 429.027 167.587C427.956 165.172 427.415 162.557 427.439 159.917C427.405 157.276 427.947 154.659 429.027 152.247C429.948 149.924 431.39 147.842 433.243 146.16C435.01 144.513 437.087 143.23 439.353 142.386C441.827 141.523 444.431 141.091 447.052 141.108C449.31 141.137 451.553 141.486 453.712 142.143C456.034 142.839 458.138 144.118 459.823 145.856L452.429 153.83Z" fill="white"/>
<path d="M373.791 152.734L384.545 144.577V142.812H373.791V152.734Z" fill="white"/>
<path d="M571.084 28.7306L153.49 29.3124L153.784 239.929L571.378 239.347L571.084 28.7306Z" fill="#111126"/>
<path d="M256.78 104.22L227.024 116.151L256.78 128.325V141.412L209.304 122.299V110.124L256.78 91.1328V104.22Z" fill="#52C0D6"/>
<path d="M304.196 130.942C301.971 133.901 299.027 136.247 295.641 137.76C292.308 139.368 288.652 140.201 284.948 140.195C281.567 140.233 278.208 139.634 275.05 138.429C272.057 137.341 269.314 135.664 266.984 133.499C264.705 131.295 262.878 128.669 261.607 125.768C260.281 122.565 259.616 119.129 259.652 115.664C259.61 112.198 260.275 108.76 261.607 105.559C262.857 102.647 264.686 100.017 266.984 97.8285C269.311 95.6439 272.053 93.9466 275.05 92.8371C278.22 91.6814 281.573 91.1041 284.948 91.1327C287.989 91.074 291.008 91.6548 293.808 92.8371C296.436 93.9392 298.761 95.6505 300.591 97.8285C302.502 100.107 303.955 102.732 304.868 105.559C305.885 108.83 306.38 112.24 306.334 115.664V120.168H273.706C274.131 122.715 275.426 125.037 277.372 126.742C279.301 128.408 281.785 129.298 284.337 129.238C286.487 129.328 288.614 128.777 290.448 127.655C292.051 126.536 293.455 125.157 294.603 123.577L304.196 130.942ZM292.281 110.368C292.326 108.116 291.494 105.934 289.959 104.281C289.174 103.452 288.227 102.792 287.176 102.342C286.125 101.891 284.993 101.661 283.849 101.663C282.425 101.655 281.014 101.924 279.694 102.455C278.566 102.943 277.533 103.623 276.639 104.463C275.832 105.257 275.171 106.184 274.683 107.203C274.211 108.259 273.941 109.395 273.889 110.551L292.281 110.368Z" fill="white"/>
<path d="M307.984 92.2891H322.098V99.7762C323.315 97.2083 325.139 94.9732 327.414 93.263C329.742 91.7751 332.471 91.0317 335.235 91.1325H337.618C338.368 91.1742 339.108 91.3176 339.818 91.5586V104.768L336.885 104.037C335.868 103.972 334.847 103.972 333.83 104.037C331.734 103.99 329.652 104.385 327.72 105.194C326.229 105.898 324.976 107.019 324.115 108.42C323.207 109.944 322.644 111.648 322.465 113.411C322.219 115.431 322.096 117.464 322.098 119.498V139.281H307.984V92.2891Z" fill="white"/>
<path d="M342.812 92.2893H356.316V98.3764C356.843 97.4149 357.478 96.5163 358.21 95.6981C359.062 94.7473 360.05 93.9268 361.143 93.2632C362.345 92.528 363.639 91.9549 364.992 91.5589C366.492 91.0813 368.062 90.8551 369.636 90.8893C372.616 90.7664 375.585 91.3287 378.312 92.5328C380.396 93.6108 382.149 95.2303 383.384 97.2199C384.671 99.3675 385.522 101.746 385.889 104.22C386.332 107.202 386.536 110.215 386.5 113.229V139.282H372.63V116.151C372.63 114.812 372.63 113.412 372.63 111.951C372.575 110.573 372.286 109.214 371.775 107.933C371.36 106.757 370.618 105.723 369.636 104.95C368.412 104.129 366.955 103.723 365.481 103.794C363.947 103.73 362.425 104.088 361.082 104.829C359.974 105.462 359.065 106.389 358.454 107.507C357.867 108.717 357.476 110.011 357.293 111.342C357.199 112.801 357.199 114.265 357.293 115.725V139.282H342.812V92.2893Z" fill="white"/>
<path d="M435.687 130.942C433.462 133.901 430.519 136.247 427.133 137.76C423.8 139.368 420.144 140.201 416.44 140.195C413.058 140.233 409.7 139.634 406.542 138.429C403.635 137.312 400.978 135.637 398.72 133.499C396.441 131.295 394.614 128.669 393.343 125.768C392.017 122.565 391.352 119.129 391.388 115.664C391.346 112.198 392.011 108.76 393.343 105.559C394.593 102.647 396.422 100.017 398.72 97.8285C401.047 95.6439 403.789 93.9466 406.786 92.8371C409.956 91.6814 413.309 91.1041 416.684 91.1327C419.725 91.074 422.744 91.6548 425.544 92.8371C428.172 93.9392 430.497 95.6505 432.327 97.8285C434.239 100.107 435.691 102.732 436.604 105.559C437.621 108.83 438.116 112.24 438.07 115.664V120.168H405.197C405.622 122.715 406.917 125.037 408.863 126.742C410.793 128.408 413.276 129.298 415.829 129.238C417.981 129.351 420.115 128.798 421.939 127.655C423.575 126.554 425.002 125.173 426.155 123.577L435.687 130.942ZM423.772 110.368C423.818 108.116 422.986 105.934 421.45 104.281C420.666 103.452 419.718 102.792 418.668 102.342C417.617 101.891 416.484 101.661 415.34 101.663C413.917 101.655 412.505 101.924 411.185 102.455C410.058 102.943 409.024 103.623 408.13 104.463C407.324 105.257 406.662 106.184 406.175 107.203C405.702 108.259 405.433 109.395 405.381 110.551L423.772 110.368Z" fill="white"/>
<path d="M468.743 106.046C467.802 104.791 466.574 103.777 465.16 103.089C463.747 102.401 462.19 102.058 460.617 102.089C459.405 102.096 458.211 102.388 457.134 102.942C456.586 103.216 456.131 103.645 455.827 104.176C455.522 104.706 455.382 105.315 455.423 105.924C455.424 106.479 455.594 107.02 455.91 107.477C456.227 107.934 456.675 108.284 457.195 108.481C458.609 109.114 460.083 109.603 461.594 109.942L467.277 111.281C469.295 111.738 471.231 112.497 473.021 113.533C474.796 114.572 476.302 116.01 477.42 117.733C478.685 119.866 479.3 122.319 479.192 124.794C479.283 127.426 478.604 130.027 477.237 132.281C475.965 134.197 474.272 135.8 472.287 136.968C470.207 138.178 467.933 139.022 465.566 139.464C463.131 139.945 460.655 140.19 458.173 140.195C454.905 140.177 451.656 139.706 448.519 138.795C445.355 137.965 442.494 136.254 440.27 133.864L448.763 124.125C449.952 125.672 451.45 126.957 453.162 127.899C454.863 128.831 456.782 129.294 458.723 129.238C460.221 129.258 461.711 129.011 463.122 128.507C463.708 128.354 464.223 128.004 464.579 127.515C464.935 127.027 465.111 126.432 465.077 125.829C465.094 125.256 464.94 124.69 464.636 124.203C464.332 123.716 463.89 123.329 463.366 123.09C461.967 122.408 460.49 121.897 458.967 121.568L453.223 120.229C451.266 119.733 449.378 118.997 447.602 118.038C445.805 117.082 444.289 115.676 443.203 113.959C441.959 111.82 441.365 109.367 441.492 106.898C441.421 104.524 441.941 102.169 443.008 100.044C444.074 97.9198 445.653 96.0918 447.602 94.724C449.455 93.435 451.524 92.4867 453.712 91.9239C456.005 91.3176 458.367 91.0106 460.739 91.0109C463.823 91.0121 466.89 91.4633 469.843 92.35C472.83 93.1991 475.518 94.865 477.603 97.1588L468.743 106.046Z" fill="white"/>
<path d="M514.814 103.794H502.594V119.377C502.525 120.553 502.525 121.731 502.594 122.907C502.684 123.87 502.976 124.803 503.449 125.646C503.887 126.457 504.603 127.083 505.466 127.412C506.605 127.89 507.835 128.118 509.071 128.081H512.004C513.052 127.918 514.029 127.452 514.814 126.742V138.916C513.244 139.516 511.6 139.905 509.926 140.073C508.283 140.261 506.631 140.363 504.977 140.377C502.676 140.324 500.394 139.955 498.195 139.282C496.3 138.822 494.514 137.994 492.94 136.847C491.414 135.714 490.213 134.203 489.457 132.464C488.546 130.416 488.107 128.19 488.174 125.951V103.794H479.192V92.2892H488.174V83.6455L502.227 78.4106V92.2892H514.448L514.814 103.794Z" fill="white"/>
<path d="M470.088 131.307H477.787L456.462 190.839L448.152 187.978L470.088 131.307Z" fill="#52C0D6"/>
<path d="M477.725 169.291L500.944 160.221L477.725 151.151V141.047L514.814 155.534V164.725L477.725 179.213V169.291Z" fill="#52C0D6"/>
<path d="M230.751 142.812H241.749V148.534C242.733 146.574 244.18 144.882 245.965 143.603C247.79 142.457 249.919 141.885 252.076 141.96H253.97C254.57 141.991 255.165 142.093 255.742 142.264V152.247C254.982 152.007 254.206 151.824 253.42 151.699C252.627 151.634 251.83 151.634 251.037 151.699C249.339 151.625 247.646 151.937 246.088 152.612C244.915 153.131 243.918 153.977 243.216 155.047C242.561 156.217 242.127 157.496 241.933 158.821C241.833 160.422 241.833 162.028 241.933 163.63V178.421H230.751V142.812Z" fill="white"/>
<path d="M294.847 178.3H284.337V173.491C283.892 174.347 283.315 175.127 282.627 175.804C281.968 176.521 281.206 177.137 280.366 177.63C279.437 178.201 278.428 178.632 277.372 178.909C276.187 179.287 274.949 179.472 273.706 179.457C271.377 179.552 269.057 179.114 266.923 178.178C265.292 177.374 263.901 176.156 262.891 174.648C261.88 173.018 261.234 171.191 260.996 169.291C260.67 167.094 260.507 164.877 260.508 162.656V142.812H271.506V160.221C271.506 161.256 271.506 162.291 271.506 163.387C271.564 164.431 271.791 165.458 272.178 166.43C272.511 167.441 273.187 168.304 274.091 168.871C274.995 169.438 276.069 169.673 277.127 169.535C278.312 169.588 279.49 169.336 280.549 168.804C281.378 168.285 282.069 167.575 282.565 166.734C283.06 165.852 283.372 164.879 283.482 163.874C283.545 162.758 283.545 161.641 283.482 160.526V142.812H294.847V178.3Z" fill="white"/>
<path d="M337.068 178.3H326.987V173.673C326.559 174.454 326.024 175.171 325.398 175.804C324.649 176.522 323.807 177.136 322.893 177.63C321.918 178.197 320.87 178.628 319.777 178.908C318.631 179.273 317.435 179.458 316.233 179.456C313.763 179.498 311.311 179.043 309.023 178.117C306.915 177.236 305.017 175.925 303.449 174.268C301.881 172.612 300.678 170.647 299.918 168.499C299.092 166.132 298.679 163.641 298.696 161.134C298.684 158.717 299.055 156.314 299.796 154.012C300.495 151.804 301.593 149.741 303.035 147.925C304.423 146.174 306.173 144.741 308.167 143.725C310.254 142.626 312.59 142.081 314.95 142.142C317.131 142.129 319.299 142.479 321.365 143.177C323.325 143.879 325.028 145.151 326.253 146.829V128.568L337.252 123.151L337.068 178.3ZM326.987 160.586C327.086 158.198 326.254 155.864 324.665 154.073C323.833 153.204 322.826 152.521 321.709 152.07C320.592 151.619 319.392 151.409 318.188 151.456C316.992 151.386 315.795 151.572 314.678 152.003C313.56 152.433 312.549 153.098 311.711 153.951C310.913 154.831 310.297 155.86 309.898 156.977C309.5 158.095 309.327 159.28 309.389 160.464C309.27 162.856 310.105 165.197 311.711 166.978C312.554 167.82 313.568 168.473 314.685 168.893C315.802 169.313 316.997 169.49 318.188 169.413C319.379 169.486 320.572 169.307 321.689 168.888C322.805 168.468 323.82 167.817 324.665 166.978C326.214 165.212 327.043 162.931 326.987 160.586Z" fill="white"/>
<path d="M339.696 167.404L358.026 151.578H340.185V142.812H370.736V153.343L351.611 169.717H371.408V178.483H339.696V167.404Z" fill="white"/>
<path d="M373.791 156.873L384.484 148.656V178.117H373.791V156.873Z" fill="white"/>
<path d="M423.161 171.787C421.376 174.004 419.095 175.776 416.501 176.961C413.875 178.162 411.02 178.784 408.13 178.787C405.483 178.813 402.854 178.359 400.37 177.448C398.103 176.604 396.027 175.321 394.26 173.674C392.44 171.963 391.004 169.888 390.044 167.586C388.985 165.17 388.464 162.553 388.516 159.917C388.464 157.28 388.985 154.664 390.044 152.247C391.018 149.953 392.453 147.881 394.26 146.16C396.041 144.531 398.114 143.25 400.37 142.386C402.865 141.523 405.489 141.091 408.13 141.108C410.494 141.074 412.841 141.508 415.035 142.386C417.062 143.242 418.876 144.531 420.351 146.16C421.861 147.94 422.985 150.013 423.65 152.247C424.469 154.72 424.861 157.313 424.811 159.917V163.63H399.515C399.853 165.579 400.869 167.346 402.387 168.621C403.896 169.911 405.838 170.585 407.825 170.508C409.437 170.541 411.026 170.119 412.407 169.291C413.67 168.464 414.768 167.412 415.646 166.186L423.161 171.787ZM413.874 156.143C413.897 155.27 413.747 154.402 413.432 153.587C413.118 152.772 412.645 152.027 412.041 151.395C411.404 150.732 410.634 150.21 409.782 149.864C408.929 149.517 408.012 149.355 407.091 149.386C405.984 149.388 404.886 149.595 403.853 149.995C402.974 150.356 402.167 150.871 401.47 151.517C400.842 152.111 400.325 152.812 399.943 153.586C399.589 154.396 399.382 155.261 399.332 156.143H413.874Z" fill="white"/>
<path d="M452.429 153.83C451.754 153.059 450.917 152.447 449.977 152.037C449.037 151.626 448.017 151.428 446.991 151.456C445.796 151.394 444.601 151.584 443.485 152.014C442.369 152.444 441.357 153.104 440.514 153.951C438.925 155.742 438.093 158.076 438.192 160.465C438.105 162.851 438.936 165.181 440.514 166.978C441.36 167.817 442.374 168.468 443.49 168.888C444.607 169.308 445.8 169.487 446.991 169.413C448.103 169.442 449.201 169.168 450.168 168.621C451.014 168.11 451.776 167.474 452.429 166.734L459.823 174.039C458.151 175.779 456.041 177.041 453.712 177.691C451.562 178.396 449.316 178.765 447.052 178.787C444.425 178.813 441.816 178.359 439.353 177.448C437.079 176.619 435 175.334 433.243 173.674C431.384 171.997 429.94 169.914 429.027 167.587C427.956 165.172 427.415 162.557 427.439 159.917C427.405 157.276 427.947 154.659 429.027 152.247C429.948 149.924 431.39 147.842 433.243 146.16C435.01 144.513 437.087 143.23 439.353 142.386C441.827 141.523 444.431 141.091 447.052 141.108C449.31 141.137 451.553 141.486 453.712 142.143C456.034 142.839 458.138 144.118 459.823 145.856L452.429 153.83Z" fill="white"/>
<path d="M373.791 152.734L384.545 144.577V142.812H373.791V152.734Z" fill="white"/>
<path d="M274.919 134.322L87.1913 134.583L87.586 416.597L275.313 416.336L274.919 134.322Z" fill="url(#paint3_linear)"/>
<path d="M270.109 113.729L91.1723 113.979C84.2082 113.988 78.5706 119.63 78.5803 126.579L78.9939 422.171C79.0036 429.121 84.657 434.746 91.6211 434.736L270.558 434.487C277.522 434.477 283.159 428.836 283.15 421.887L282.736 126.294C282.726 119.345 277.073 113.72 270.109 113.729Z" fill="white"/>
<path d="M268.835 138.501H92.5344V407.53H268.835V138.501Z" fill="#111126"/>
<path d="M181.169 428.62C185.181 428.62 188.432 425.296 188.432 421.197C188.432 417.097 185.181 413.773 181.169 413.773C177.158 413.773 173.906 417.097 173.906 421.197C173.906 425.296 177.158 428.62 181.169 428.62Z" fill="#DBDBDB"/>
<path d="M138.181 261.063L126.142 265.89L138.181 270.815V276.11L118.973 268.377V263.452L138.181 255.768V261.063Z" fill="#52C0D6"/>
<path d="M157.365 271.874C156.465 273.071 155.274 274.021 153.904 274.633C152.555 275.283 151.076 275.62 149.578 275.618C148.209 275.633 146.851 275.391 145.573 274.904C144.362 274.463 143.252 273.785 142.31 272.909C141.387 272.017 140.648 270.954 140.134 269.781C139.598 268.485 139.329 267.095 139.343 265.693C139.326 264.291 139.595 262.9 140.134 261.605C140.64 260.426 141.38 259.362 142.31 258.477C143.251 257.593 144.36 256.906 145.573 256.457C146.855 255.99 148.212 255.756 149.578 255.768C150.808 255.744 152.029 255.979 153.162 256.457C154.225 256.903 155.166 257.596 155.906 258.477C156.68 259.399 157.267 260.461 157.637 261.605C158.048 262.928 158.248 264.308 158.23 265.693V267.515H145.029C145.201 268.546 145.725 269.485 146.512 270.175C147.293 270.849 148.298 271.209 149.33 271.185C150.2 271.221 151.061 270.998 151.802 270.544C152.451 270.091 153.019 269.534 153.484 268.894L157.365 271.874ZM152.544 263.55C152.563 262.639 152.226 261.756 151.605 261.087C151.287 260.752 150.904 260.485 150.479 260.303C150.054 260.121 149.595 260.027 149.133 260.028C148.557 260.025 147.986 260.134 147.452 260.349C146.995 260.546 146.577 260.821 146.216 261.161C145.889 261.482 145.622 261.857 145.424 262.27C145.233 262.697 145.124 263.157 145.103 263.624L152.544 263.55Z" fill="white"/>
<path d="M158.897 256.236H164.608V259.265C165.1 258.226 165.838 257.322 166.759 256.63C167.701 256.028 168.805 255.727 169.923 255.768H170.887C171.19 255.785 171.49 255.843 171.777 255.94V261.284L170.59 260.989C170.179 260.963 169.766 260.963 169.354 260.989C168.507 260.97 167.664 261.129 166.882 261.457C166.279 261.742 165.772 262.195 165.424 262.762C165.056 263.379 164.829 264.068 164.756 264.782C164.657 265.599 164.607 266.421 164.608 267.244V275.248H158.897V256.236Z" fill="white"/>
<path d="M172.988 256.236H178.452V258.699C178.665 258.31 178.922 257.946 179.218 257.615C179.563 257.23 179.963 256.898 180.405 256.63C180.891 256.332 181.415 256.101 181.962 255.94C182.569 255.747 183.204 255.656 183.841 255.669C185.047 255.62 186.248 255.847 187.351 256.334C188.195 256.771 188.904 257.426 189.403 258.231C189.924 259.1 190.268 260.062 190.417 261.063C190.596 262.269 190.679 263.488 190.664 264.708V275.248H185.052V265.89C185.052 265.348 185.052 264.782 185.052 264.191C185.03 263.633 184.913 263.084 184.706 262.565C184.539 262.089 184.238 261.671 183.841 261.358C183.346 261.026 182.756 260.862 182.16 260.89C181.539 260.865 180.924 261.01 180.38 261.309C179.932 261.565 179.564 261.941 179.317 262.393C179.08 262.882 178.921 263.406 178.847 263.944C178.809 264.535 178.809 265.127 178.847 265.717V275.248H172.988V256.236Z" fill="white"/>
<path d="M210.565 271.874C209.664 273.071 208.473 274.021 207.104 274.633C205.755 275.283 204.276 275.62 202.777 275.618C201.409 275.633 200.05 275.391 198.773 274.904C197.597 274.452 196.522 273.774 195.608 272.909C194.686 272.017 193.947 270.954 193.433 269.781C192.896 268.485 192.627 267.095 192.642 265.693C192.625 264.291 192.894 262.9 193.433 261.605C193.938 260.426 194.678 259.362 195.608 258.477C196.549 257.593 197.659 256.906 198.871 256.457C200.154 255.99 201.511 255.756 202.876 255.768C204.106 255.744 205.328 255.979 206.461 256.457C207.524 256.903 208.465 257.596 209.205 258.477C209.978 259.399 210.566 260.461 210.935 261.605C211.347 262.928 211.547 264.308 211.529 265.693V267.515H198.229C198.401 268.546 198.925 269.485 199.712 270.175C200.493 270.849 201.497 271.209 202.53 271.185C203.401 271.23 204.264 271.007 205.002 270.544C205.664 270.099 206.242 269.54 206.708 268.894L210.565 271.874ZM205.744 263.55C205.762 262.639 205.426 261.756 204.805 261.087C204.487 260.752 204.104 260.485 203.679 260.303C203.253 260.121 202.795 260.027 202.332 260.028C201.756 260.025 201.185 260.134 200.651 260.349C200.195 260.546 199.777 260.821 199.415 261.161C199.089 261.482 198.821 261.857 198.624 262.27C198.433 262.697 198.324 263.157 198.303 263.624L205.744 263.55Z" fill="white"/>
<path d="M223.939 261.802C223.558 261.294 223.061 260.884 222.489 260.605C221.917 260.327 221.287 260.188 220.651 260.201C220.16 260.204 219.678 260.322 219.242 260.546C219.02 260.657 218.836 260.83 218.713 261.045C218.59 261.26 218.533 261.506 218.549 261.752C218.55 261.977 218.618 262.196 218.746 262.381C218.874 262.565 219.056 262.707 219.266 262.787C219.838 263.043 220.435 263.241 221.046 263.378L223.345 263.92C224.162 264.105 224.945 264.412 225.669 264.831C226.387 265.251 226.997 265.833 227.449 266.53C227.961 267.393 228.21 268.386 228.166 269.387C228.203 270.452 227.928 271.504 227.375 272.416C226.86 273.191 226.176 273.84 225.372 274.313C224.531 274.802 223.611 275.143 222.653 275.322C221.668 275.517 220.666 275.616 219.662 275.618C218.34 275.611 217.025 275.42 215.756 275.051C214.476 274.715 213.318 274.024 212.419 273.056L215.855 269.116C216.336 269.742 216.942 270.262 217.635 270.643C218.323 271.02 219.099 271.207 219.884 271.185C220.491 271.193 221.093 271.093 221.664 270.889C221.901 270.827 222.11 270.685 222.254 270.488C222.398 270.29 222.469 270.049 222.455 269.806C222.462 269.574 222.4 269.345 222.277 269.148C222.154 268.951 221.975 268.794 221.763 268.697C221.197 268.421 220.599 268.215 219.983 268.082L217.659 267.54C216.867 267.339 216.104 267.041 215.385 266.653C214.658 266.267 214.045 265.698 213.605 265.003C213.102 264.138 212.862 263.145 212.913 262.146C212.884 261.186 213.095 260.233 213.526 259.373C213.958 258.514 214.596 257.774 215.385 257.221C216.135 256.699 216.972 256.316 217.857 256.088C218.785 255.843 219.74 255.719 220.7 255.719C221.948 255.719 223.189 255.902 224.384 256.26C225.592 256.604 226.68 257.278 227.523 258.206L223.939 261.802Z" fill="white"/>
<path d="M242.578 260.89H237.634V267.195C237.606 267.671 237.606 268.148 237.634 268.623C237.671 269.013 237.789 269.39 237.98 269.732C238.157 270.06 238.447 270.313 238.796 270.446C239.257 270.639 239.754 270.732 240.255 270.717H241.441C241.865 270.651 242.26 270.462 242.578 270.175V275.101C241.943 275.343 241.278 275.5 240.601 275.568C239.936 275.645 239.267 275.686 238.598 275.692C237.667 275.67 236.744 275.521 235.854 275.248C235.087 275.062 234.365 274.728 233.728 274.263C233.111 273.805 232.625 273.194 232.319 272.49C231.95 271.661 231.773 270.761 231.8 269.855V260.89H228.166V256.236H231.8V252.739L237.486 250.621V256.236H242.43L242.578 260.89Z" fill="white"/>
<path d="M224.482 272.022H227.597L218.97 296.108L215.608 294.95L224.482 272.022Z" fill="#52C0D6"/>
<path d="M227.573 287.39L236.967 283.72L227.573 280.051V275.962L242.578 281.824V285.543L227.573 291.404V287.39Z" fill="#52C0D6"/>
<path d="M127.65 276.677H132.1V278.992C132.498 278.199 133.083 277.514 133.806 276.997C134.544 276.533 135.405 276.301 136.278 276.332H137.044C137.287 276.345 137.528 276.386 137.761 276.455V280.494C137.454 280.397 137.14 280.323 136.821 280.272C136.501 280.246 136.178 280.246 135.857 280.272C135.17 280.242 134.486 280.369 133.855 280.642C133.38 280.852 132.977 281.194 132.693 281.627C132.428 282.1 132.252 282.618 132.174 283.154C132.134 283.802 132.134 284.451 132.174 285.099V291.084H127.65V276.677Z" fill="white"/>
<path d="M153.582 291.035H149.33V289.089C149.15 289.435 148.917 289.751 148.638 290.025C148.372 290.315 148.063 290.564 147.723 290.764C147.348 290.995 146.939 291.169 146.512 291.281C146.033 291.434 145.532 291.509 145.029 291.503C144.087 291.541 143.148 291.364 142.285 290.985C141.625 290.66 141.062 290.167 140.653 289.557C140.244 288.898 139.983 288.159 139.887 287.39C139.755 286.501 139.689 285.604 139.689 284.705V276.677H144.139V283.72C144.139 284.139 144.139 284.558 144.139 285.001C144.162 285.423 144.254 285.839 144.411 286.232C144.545 286.641 144.819 286.991 145.185 287.22C145.55 287.449 145.985 287.544 146.413 287.488C146.893 287.51 147.369 287.408 147.798 287.193C148.133 286.983 148.413 286.696 148.613 286.355C148.814 285.998 148.94 285.605 148.984 285.198C149.01 284.747 149.01 284.295 148.984 283.843V276.677H153.582V291.035Z" fill="white"/>
<path d="M170.665 291.035H166.586V289.163C166.413 289.479 166.196 289.769 165.943 290.025C165.64 290.315 165.299 290.564 164.929 290.764C164.535 290.993 164.111 291.167 163.669 291.281C163.205 291.428 162.721 291.503 162.235 291.502C161.236 291.52 160.243 291.335 159.318 290.961C158.465 290.604 157.697 290.074 157.063 289.403C156.428 288.733 155.942 287.938 155.634 287.07C155.3 286.112 155.133 285.104 155.14 284.09C155.135 283.112 155.285 282.139 155.585 281.208C155.868 280.315 156.312 279.48 156.895 278.745C157.457 278.037 158.165 277.457 158.972 277.046C159.816 276.601 160.761 276.381 161.716 276.406C162.598 276.401 163.475 276.542 164.311 276.824C165.104 277.108 165.793 277.623 166.289 278.302V270.914L170.739 268.722L170.665 291.035ZM166.586 283.868C166.626 282.902 166.289 281.957 165.646 281.233C165.31 280.881 164.902 280.605 164.45 280.422C163.999 280.24 163.513 280.155 163.026 280.174C162.542 280.145 162.058 280.221 161.606 280.395C161.153 280.569 160.744 280.838 160.405 281.184C160.082 281.54 159.833 281.956 159.672 282.408C159.511 282.86 159.441 283.339 159.466 283.819C159.418 284.786 159.755 285.733 160.405 286.454C160.746 286.795 161.157 287.059 161.609 287.229C162.061 287.399 162.544 287.47 163.026 287.439C163.508 287.469 163.99 287.396 164.442 287.227C164.894 287.057 165.304 286.793 165.646 286.454C166.273 285.739 166.608 284.817 166.586 283.868Z" fill="white"/>
<path d="M171.728 286.626L179.144 280.223H171.925V276.677H184.286V280.937L176.548 287.562H184.558V291.109H171.728V286.626Z" fill="white"/>
<path d="M185.522 282.366L189.848 279.041V290.961H185.522V282.366Z" fill="white"/>
<path d="M205.497 288.399C204.774 289.297 203.852 290.013 202.802 290.493C201.74 290.979 200.584 291.231 199.415 291.232C198.344 291.242 197.281 291.059 196.276 290.69C195.359 290.348 194.518 289.829 193.804 289.163C193.067 288.471 192.486 287.631 192.098 286.7C191.669 285.722 191.459 284.664 191.48 283.597C191.459 282.53 191.669 281.472 192.098 280.494C192.492 279.566 193.072 278.728 193.804 278.031C194.524 277.372 195.363 276.854 196.276 276.504C197.285 276.155 198.347 275.98 199.415 275.987C200.372 275.973 201.321 276.149 202.209 276.504C203.029 276.851 203.763 277.372 204.36 278.031C204.971 278.751 205.425 279.59 205.694 280.494C206.026 281.494 206.185 282.544 206.164 283.597V285.099H195.93C196.066 285.888 196.478 286.603 197.092 287.119C197.702 287.641 198.488 287.913 199.292 287.882C199.944 287.895 200.587 287.725 201.146 287.39C201.657 287.055 202.101 286.629 202.456 286.134L205.497 288.399ZM201.739 282.07C201.748 281.717 201.688 281.366 201.56 281.036C201.433 280.706 201.242 280.405 200.997 280.149C200.74 279.881 200.428 279.67 200.083 279.53C199.738 279.39 199.367 279.324 198.995 279.336C198.547 279.337 198.103 279.421 197.685 279.583C197.329 279.729 197.002 279.937 196.721 280.198C196.467 280.439 196.257 280.722 196.103 281.036C195.96 281.363 195.876 281.713 195.855 282.07H201.739Z" fill="white"/>
<path d="M217.338 281.134C217.065 280.823 216.726 280.575 216.346 280.409C215.966 280.243 215.553 280.163 215.138 280.174C214.654 280.149 214.171 280.226 213.719 280.4C213.268 280.574 212.858 280.841 212.518 281.184C211.874 281.908 211.538 282.852 211.578 283.819C211.543 284.784 211.879 285.727 212.518 286.454C212.859 286.793 213.27 287.057 213.722 287.227C214.173 287.396 214.656 287.469 215.138 287.439C215.588 287.451 216.032 287.34 216.423 287.119C216.765 286.912 217.074 286.654 217.338 286.355L220.329 289.311C219.653 290.015 218.799 290.525 217.857 290.788C216.987 291.073 216.078 291.223 215.163 291.232C214.1 291.242 213.044 291.058 212.048 290.69C211.128 290.354 210.286 289.835 209.576 289.163C208.823 288.485 208.239 287.642 207.87 286.7C207.437 285.723 207.218 284.665 207.227 283.597C207.214 282.529 207.433 281.47 207.87 280.494C208.243 279.554 208.826 278.712 209.576 278.031C210.29 277.365 211.131 276.846 212.048 276.504C213.049 276.155 214.102 275.98 215.163 275.987C216.076 275.999 216.983 276.14 217.857 276.406C218.797 276.688 219.648 277.205 220.329 277.908L217.338 281.134Z" fill="white"/>
<path d="M185.522 280.691L189.873 277.391V276.677H185.522V280.691Z" fill="white"/>
<path d="M150.519 129.241C151.857 129.239 152.941 128.129 152.939 126.761C152.937 125.393 151.85 124.286 150.512 124.288C149.173 124.289 148.09 125.4 148.092 126.768C148.094 128.136 149.18 129.243 150.519 129.241Z" fill="#DBDBDB"/>
<path d="M193.049 125.218L163.666 125.258C163.086 125.259 162.617 125.729 162.617 126.308L162.618 126.689C162.619 127.268 163.09 127.736 163.67 127.735L193.053 127.694C193.633 127.694 194.102 127.224 194.102 126.645L194.101 126.264C194.1 125.685 193.629 125.217 193.049 125.218Z" fill="#DBDBDB"/>
<path d="M136.554 189.285L7.3288 189.465C3.27282 189.471 -0.0106068 192.756 -0.0049436 196.803L0.340509 443.679C0.346172 447.726 3.63878 451.003 7.69476 450.997L136.92 450.817C140.976 450.811 144.259 447.526 144.253 443.479L143.908 196.603C143.902 192.555 140.61 189.279 136.554 189.285Z" fill="url(#paint4_linear)"/>
<path d="M133.255 193.598L10.6543 193.769C6.59832 193.775 3.31489 197.06 3.32056 201.108L3.6515 437.614C3.65716 441.661 6.94977 444.938 11.0057 444.932L133.606 444.761C137.662 444.755 140.946 441.47 140.94 437.423L140.609 200.916C140.604 196.869 137.311 193.593 133.255 193.598Z" fill="white"/>
<path d="M125.384 210.901L19.0944 211.049L19.3804 415.444L125.67 415.296L125.384 210.901Z" fill="#111126"/>
<path d="M46.7233 305.955L39.5329 308.838L46.7233 311.78V314.942L35.2512 310.324V307.382L46.7233 302.793V305.955Z" fill="#52C0D6"/>
<path d="M58.1806 312.413C57.643 313.127 56.9316 313.694 56.1135 314.06C55.3081 314.448 54.4246 314.65 53.5297 314.648C52.7126 314.658 51.901 314.513 51.1379 314.222C50.4146 313.959 49.7519 313.554 49.189 313.03C48.6381 312.498 48.1968 311.863 47.8897 311.162C47.5693 310.388 47.4086 309.558 47.4172 308.721C47.4069 307.883 47.5677 307.053 47.8897 306.279C48.1916 305.575 48.6336 304.94 49.189 304.411C49.751 303.883 50.4138 303.473 51.1379 303.205C51.9039 302.926 52.7141 302.786 53.5297 302.793C54.2645 302.779 54.994 302.919 55.6706 303.205C56.3055 303.471 56.8674 303.885 57.3095 304.411C57.7714 304.962 58.1224 305.596 58.343 306.279C58.5887 307.069 58.7083 307.893 58.6973 308.721V309.809H50.8131C50.9157 310.424 51.2287 310.986 51.6989 311.398C52.1652 311.8 52.7653 312.015 53.3821 312.001C53.9015 312.022 54.4155 311.889 54.8585 311.618C55.2459 311.348 55.5852 311.015 55.8625 310.633L58.1806 312.413ZM55.3015 307.441C55.3125 306.897 55.1114 306.37 54.7404 305.97C54.5508 305.77 54.3219 305.61 54.068 305.502C53.814 305.393 53.5404 305.337 53.264 305.338C52.92 305.336 52.579 305.401 52.26 305.529C51.9876 305.647 51.7378 305.811 51.5218 306.014C51.327 306.206 51.1671 306.43 51.0493 306.676C50.9351 306.931 50.87 307.206 50.8573 307.485L55.3015 307.441Z" fill="white"/>
<path d="M59.0959 303.072H62.5066V304.882C62.8005 304.261 63.2413 303.721 63.7911 303.308C64.3536 302.948 65.013 302.769 65.6809 302.793H66.2568C66.4378 302.803 66.6166 302.838 66.7883 302.896V306.088L66.0796 305.911C65.8338 305.896 65.5872 305.896 65.3413 305.911C64.8349 305.9 64.3319 305.995 63.8649 306.191C63.5047 306.361 63.202 306.632 62.9938 306.97C62.7744 307.339 62.6383 307.75 62.5951 308.176C62.5356 308.664 62.506 309.156 62.5066 309.647V314.428H59.0959V303.072Z" fill="white"/>
<path d="M67.5117 303.072H70.7747V304.543C70.9021 304.311 71.0556 304.094 71.2324 303.896C71.4383 303.666 71.6771 303.468 71.9411 303.308C72.2315 303.13 72.5443 302.992 72.8712 302.896C73.2337 302.781 73.6129 302.726 73.9933 302.734C74.7135 302.704 75.4309 302.84 76.0899 303.131C76.5935 303.392 77.0169 303.783 77.3154 304.264C77.6263 304.783 77.832 305.358 77.9207 305.955C78.0277 306.676 78.077 307.404 78.0684 308.132V314.428H74.7168V308.838C74.7168 308.515 74.7168 308.176 74.7168 307.823C74.7036 307.49 74.6337 307.162 74.5101 306.853C74.4099 306.568 74.2307 306.318 73.9933 306.132C73.6977 305.933 73.3455 305.835 72.9894 305.852C72.6187 305.837 72.2509 305.924 71.9263 306.102C71.6587 306.256 71.4389 306.48 71.2914 306.75C71.1496 307.042 71.055 307.355 71.0109 307.676C70.988 308.029 70.988 308.383 71.0109 308.735V314.428H67.5117V303.072Z" fill="white"/>
<path d="M89.9538 312.413C89.4162 313.127 88.7049 313.694 87.8868 314.06C87.0814 314.448 86.1979 314.65 85.303 314.648C84.4859 314.658 83.6743 314.513 82.9112 314.222C82.2089 313.952 81.5668 313.547 81.0213 313.03C80.4705 312.498 80.0291 311.863 79.722 311.162C79.4016 310.388 79.2409 309.558 79.2495 308.721C79.2393 307.883 79.4 307.053 79.722 306.279C80.0239 305.575 80.4659 304.94 81.0213 304.411C81.5834 303.883 82.2461 303.473 82.9702 303.205C83.7362 302.926 84.5464 302.786 85.3621 302.793C86.0968 302.779 86.8263 302.919 87.5029 303.205C88.1378 303.471 88.6997 303.885 89.1418 304.411C89.6038 304.962 89.9547 305.596 90.1753 306.279C90.4211 307.069 90.5406 307.893 90.5297 308.721V309.809H82.5863C82.689 310.424 83.002 310.986 83.4722 311.398C83.9384 311.8 84.5385 312.015 85.1554 312.001C85.6753 312.028 86.191 311.894 86.6318 311.618C87.0271 311.352 87.372 311.019 87.6506 310.633L89.9538 312.413ZM87.0748 307.441C87.0858 306.897 86.8847 306.37 86.5137 305.97C86.324 305.77 86.0952 305.61 85.8412 305.502C85.5873 305.393 85.3137 305.337 85.0373 305.338C84.6933 305.336 84.3522 305.401 84.0333 305.529C83.7609 305.647 83.5111 305.811 83.295 306.014C83.1002 306.206 82.9404 306.43 82.8226 306.676C82.7084 306.931 82.6433 307.206 82.6306 307.485L87.0748 307.441Z" fill="white"/>
<path d="M97.9414 306.397C97.7139 306.093 97.4171 305.848 97.0756 305.682C96.7341 305.516 96.3578 305.433 95.9778 305.441C95.6849 305.442 95.3965 305.513 95.1362 305.647C95.0037 305.713 94.8938 305.817 94.8203 305.945C94.7467 306.073 94.7128 306.22 94.7228 306.367C94.7229 306.501 94.764 306.632 94.8404 306.742C94.9169 306.853 95.0252 306.937 95.1509 306.985C95.4925 307.138 95.8486 307.256 96.214 307.338L97.5871 307.662C98.0747 307.772 98.5426 307.956 98.975 308.206C99.4039 308.457 99.768 308.804 100.038 309.221C100.344 309.736 100.492 310.329 100.466 310.927C100.488 311.563 100.324 312.191 99.9937 312.736C99.6864 313.199 99.2774 313.586 98.7978 313.869C98.2951 314.161 97.7457 314.365 97.1737 314.472C96.5853 314.588 95.987 314.647 95.3872 314.648C94.5976 314.644 93.8124 314.53 93.0544 314.31C92.2899 314.109 91.5986 313.696 91.0612 313.119L93.1134 310.765C93.4008 311.139 93.7628 311.449 94.1765 311.677C94.5873 311.902 95.0512 312.014 95.52 312.001C95.8821 312.006 96.2422 311.946 96.5831 311.824C96.7247 311.787 96.849 311.702 96.9351 311.584C97.0212 311.467 97.0638 311.323 97.0556 311.177C97.0595 311.038 97.0224 310.902 96.9489 310.784C96.8754 310.666 96.7687 310.573 96.6422 310.515C96.304 310.35 95.9471 310.227 95.5791 310.147L94.1912 309.824C93.7182 309.704 93.262 309.526 92.8329 309.294C92.3987 309.063 92.0323 308.724 91.7699 308.309C91.4693 307.792 91.3257 307.199 91.3564 306.603C91.3392 306.029 91.4651 305.46 91.7228 304.946C91.9804 304.433 92.3619 303.991 92.8329 303.661C93.2806 303.349 93.7806 303.12 94.3094 302.984C94.8633 302.838 95.4341 302.764 96.0073 302.764C96.7525 302.764 97.4937 302.873 98.2072 303.087C98.9289 303.292 99.5785 303.695 100.082 304.249L97.9414 306.397Z" fill="white"/>
<path d="M109.074 305.852H106.121V309.618C106.104 309.902 106.104 310.187 106.121 310.471C106.143 310.704 106.213 310.929 106.328 311.133C106.433 311.329 106.606 311.48 106.815 311.559C107.09 311.675 107.387 311.73 107.686 311.721H108.395C108.648 311.682 108.884 311.569 109.074 311.398V314.339C108.694 314.484 108.297 314.578 107.893 314.619C107.496 314.664 107.096 314.689 106.697 314.692C106.141 314.68 105.589 314.59 105.058 314.428C104.6 314.316 104.169 314.117 103.788 313.839C103.42 313.566 103.129 313.2 102.947 312.78C102.726 312.285 102.62 311.748 102.637 311.206V305.852H100.466V303.072H102.637V300.984L106.032 299.719V303.072H108.985L109.074 305.852Z" fill="white"/>
<path d="M98.2663 312.501H100.127L94.9738 326.886L92.9658 326.195L98.2663 312.501Z" fill="#52C0D6"/>
<path d="M100.112 321.679L105.722 319.487L100.112 317.296V314.854L109.074 318.355V320.576L100.112 324.076V321.679Z" fill="#52C0D6"/>
<path d="M40.4336 315.281H43.0912V316.663C43.3288 316.19 43.6785 315.781 44.11 315.472C44.551 315.195 45.0654 315.057 45.5864 315.075H46.0441C46.1893 315.082 46.333 315.107 46.4723 315.148V317.561C46.2888 317.503 46.1013 317.458 45.9112 317.428C45.7196 317.412 45.527 317.412 45.3354 317.428C44.9251 317.41 44.5161 317.486 44.1395 317.649C43.8561 317.774 43.6151 317.978 43.4456 318.237C43.2874 318.52 43.1824 318.829 43.1355 319.149C43.1115 319.536 43.1115 319.924 43.1355 320.311V323.885H40.4336V315.281Z" fill="white"/>
<path d="M55.9216 323.856H53.3821V322.694C53.2745 322.901 53.135 323.089 52.9687 323.253C52.8095 323.426 52.6254 323.575 52.4224 323.694C52.1979 323.832 51.9541 323.936 51.6989 324.003C51.4127 324.094 51.1136 324.139 50.813 324.135C50.2503 324.158 49.6897 324.053 49.1742 323.826C48.7799 323.632 48.4439 323.338 48.1997 322.973C47.9556 322.58 47.7995 322.138 47.742 321.679C47.6632 321.148 47.6238 320.612 47.6239 320.076V315.281H50.2815V319.487C50.2815 319.737 50.2815 319.988 50.2815 320.252C50.2954 320.505 50.3503 320.753 50.4439 320.988C50.5243 321.232 50.6878 321.441 50.9062 321.578C51.1245 321.714 51.384 321.771 51.6399 321.738C51.9261 321.751 52.2109 321.69 52.4667 321.561C52.667 321.436 52.8341 321.264 52.9539 321.061C53.0735 320.848 53.1488 320.613 53.1754 320.37C53.1905 320.1 53.1905 319.83 53.1754 319.561V315.281H55.9216V323.856Z" fill="white"/>
<path d="M66.1239 323.856H63.6877V322.738C63.5844 322.927 63.4552 323.1 63.3039 323.253C63.1229 323.426 62.9193 323.575 62.6985 323.694C62.463 323.831 62.2096 323.935 61.9455 324.003C61.6687 324.091 61.3798 324.136 61.0892 324.135C60.4925 324.145 59.8999 324.035 59.347 323.812C58.8378 323.599 58.379 323.282 58.0001 322.882C57.6212 322.481 57.3306 322.007 57.147 321.488C56.9474 320.916 56.8476 320.314 56.8517 319.708C56.8488 319.124 56.9385 318.543 57.1175 317.987C57.2865 317.453 57.5516 316.955 57.9 316.516C58.2354 316.093 58.6584 315.747 59.1403 315.501C59.6445 315.236 60.2089 315.104 60.7791 315.119C61.3062 315.116 61.8302 315.2 62.3294 315.369C62.803 315.538 63.2146 315.846 63.5106 316.251V311.839L66.1682 310.53L66.1239 323.856ZM63.6877 319.576C63.7118 318.998 63.5108 318.434 63.1267 318.002C62.9258 317.792 62.6823 317.627 62.4125 317.518C62.1427 317.409 61.8526 317.358 61.5616 317.369C61.2726 317.352 60.9834 317.397 60.7134 317.502C60.4434 317.606 60.199 317.766 59.9966 317.972C59.8037 318.185 59.6548 318.433 59.5585 318.704C59.4623 318.974 59.4205 319.26 59.4355 319.546C59.4067 320.124 59.6084 320.69 59.9966 321.12C60.2003 321.324 60.4453 321.481 60.7152 321.583C60.9851 321.684 61.2737 321.727 61.5616 321.708C61.8494 321.726 62.1378 321.683 62.4076 321.582C62.6774 321.48 62.9225 321.323 63.1267 321.12C63.5011 320.693 63.7013 320.142 63.6877 319.576Z" fill="white"/>
<path d="M66.7587 321.223L71.1881 317.399H66.8768V315.281H74.2591V317.825L69.6378 321.782H74.4215V323.9H66.7587V321.223Z" fill="white"/>
<path d="M74.9974 318.678L77.5812 316.693V323.812H74.9974V318.678Z" fill="white"/>
<path d="M86.9271 322.282C86.4957 322.818 85.9446 323.246 85.3178 323.532C84.6832 323.822 83.9933 323.973 83.295 323.974C82.6555 323.98 82.0201 323.87 81.4199 323.65C80.8722 323.446 80.3704 323.136 79.9435 322.738C79.5038 322.325 79.1567 321.823 78.9247 321.267C78.6688 320.683 78.5429 320.051 78.5556 319.414C78.5429 318.777 78.6688 318.144 78.9247 317.561C79.1601 317.006 79.5068 316.506 79.9435 316.09C80.3738 315.696 80.8747 315.387 81.4199 315.178C82.0228 314.969 82.6569 314.865 83.295 314.869C83.8662 314.861 84.4333 314.966 84.9634 315.178C85.4533 315.385 85.8917 315.696 86.248 316.09C86.6129 316.52 86.8844 317.021 87.0452 317.561C87.2431 318.158 87.3379 318.785 87.3258 319.414V320.311H81.2132C81.2948 320.782 81.5406 321.209 81.9072 321.517C82.2718 321.829 82.7412 321.992 83.2212 321.973C83.6108 321.981 83.9947 321.879 84.3286 321.679C84.6337 321.479 84.899 321.225 85.1111 320.929L86.9271 322.282ZM84.6829 318.502C84.6885 318.291 84.6522 318.081 84.5762 317.884C84.5002 317.687 84.3859 317.507 84.24 317.355C84.0862 317.194 83.9002 317.068 83.6941 316.985C83.488 316.901 83.2665 316.862 83.044 316.869C82.7763 316.87 82.511 316.92 82.2615 317.016C82.049 317.104 81.854 317.228 81.6857 317.384C81.534 317.528 81.409 317.697 81.3166 317.884C81.2312 318.08 81.1812 318.289 81.1689 318.502H84.6829Z" fill="white"/>
<path d="M93.9993 317.943C93.8362 317.757 93.6339 317.609 93.4067 317.51C93.1796 317.411 92.9332 317.363 92.6853 317.369C92.3965 317.354 92.1078 317.4 91.8381 317.504C91.5683 317.608 91.3237 317.768 91.1202 317.972C90.7362 318.405 90.5351 318.969 90.5592 319.546C90.5381 320.123 90.7388 320.686 91.1202 321.12C91.3245 321.323 91.5696 321.48 91.8393 321.582C92.1091 321.683 92.3975 321.726 92.6853 321.708C92.9539 321.715 93.2193 321.649 93.453 321.517C93.6572 321.394 93.8414 321.24 93.9993 321.061L95.7858 322.826C95.3819 323.247 94.872 323.552 94.3094 323.709C93.7898 323.879 93.247 323.968 92.7 323.974C92.0653 323.98 91.4348 323.87 90.8397 323.65C90.2902 323.45 89.7877 323.139 89.3633 322.738C88.9139 322.333 88.5652 321.829 88.3445 321.267C88.0857 320.684 87.9548 320.052 87.9606 319.414C87.9525 318.776 88.0835 318.143 88.3445 317.561C88.567 316.999 88.9155 316.496 89.3633 316.09C89.7902 315.692 90.292 315.382 90.8397 315.178C91.4374 314.969 92.0667 314.865 92.7 314.869C93.2456 314.876 93.7875 314.96 94.3094 315.119C94.8705 315.287 95.3788 315.596 95.7858 316.016L93.9993 317.943Z" fill="white"/>
<path d="M74.9974 317.678L77.5959 315.707V315.281H74.9974V317.678Z" fill="white"/>
<path d="M71.5232 439.517C76.2038 439.517 79.9982 435.639 79.9982 430.855C79.9982 426.071 76.2038 422.193 71.5232 422.193C66.8426 422.193 63.0482 426.071 63.0482 430.855C63.0482 435.639 66.8426 439.517 71.5232 439.517Z" fill="#DBDBDB"/>
<path d="M55.8705 203.665C56.8075 203.664 57.5659 202.889 57.5646 201.934C57.5633 200.978 56.8026 200.205 55.8657 200.206C54.9288 200.208 54.1703 200.983 54.1717 201.938C54.173 202.893 54.9336 203.667 55.8705 203.665Z" fill="#DBDBDB"/>
<path d="M88.6572 200.586L64.5909 200.619C63.9825 200.62 63.49 201.113 63.4909 201.72L63.4914 202.123C63.4923 202.73 63.9862 203.222 64.5946 203.221L88.6608 203.187C89.2692 203.186 89.7617 202.694 89.7609 202.086L89.7603 201.683C89.7595 201.076 89.2656 200.585 88.6572 200.586Z" fill="#DBDBDB"/>
</g>
<defs>
<linearGradient id="paint0_linear" x1="361.684" y1="414.984" x2="361.66" y2="397.932" gradientUnits="userSpaceOnUse">
<stop stop-color="#808080" stop-opacity="0.25"/>
<stop offset="0.54" stop-color="#808080" stop-opacity="0.12"/>
<stop offset="1" stop-color="#808080" stop-opacity="0.1"/>
</linearGradient>
<linearGradient id="paint1_linear" x1="324331" y1="192531" x2="324331" y2="52506.9" gradientUnits="userSpaceOnUse">
<stop stop-color="#808080" stop-opacity="0.25"/>
<stop offset="0.54" stop-color="#808080" stop-opacity="0.12"/>
<stop offset="1" stop-color="#808080" stop-opacity="0.1"/>
</linearGradient>
<linearGradient id="paint2_linear" x1="95871.1" y1="256953" x2="95655.2" y2="101967" gradientUnits="userSpaceOnUse">
<stop stop-color="#808080" stop-opacity="0.25"/>
<stop offset="0.54" stop-color="#808080" stop-opacity="0.12"/>
<stop offset="1" stop-color="#808080" stop-opacity="0.1"/>
</linearGradient>
<linearGradient id="paint3_linear" x1="181.46" y1="418.869" x2="181.066" y2="135.558" gradientUnits="userSpaceOnUse">
<stop stop-opacity="0.09"/>
<stop offset="0.55" stop-opacity="0.07"/>
<stop offset="1" stop-opacity="0.02"/>
</linearGradient>
<linearGradient id="paint4_linear" x1="42145.6" y1="202105" x2="42015.1" y2="108466" gradientUnits="userSpaceOnUse">
<stop stop-color="#808080" stop-opacity="0.25"/>
<stop offset="0.54" stop-color="#808080" stop-opacity="0.12"/>
<stop offset="1" stop-color="#808080" stop-opacity="0.1"/>
</linearGradient>
<clipPath id="clip0">
<rect width="598" height="451" fill="white"/>
</clipPath>
</defs>
</svg>
