<svg width="389" height="366" viewBox="0 0 389 366" fill="none" xmlns="http://www.w3.org/2000/svg">
<g clip-path="url(#clip0)">
<path d="M282.416 207.69V308.795L299.341 336.357L300.63 338.453H367.413L368.763 207.69H282.416Z" fill="#E6E6E6"/>
<path opacity="0.1" d="M282.416 207.69V308.795L299.341 336.357L300.38 207.69H282.416Z" fill="white"/>
<path d="M121.19 204.994V306.099L104.265 333.661L102.977 335.756H36.1931L34.8438 204.994H121.19Z" fill="#E6E6E6"/>
<path opacity="0.1" d="M121.19 204.994V306.099L104.265 333.661L103.226 204.994H121.19Z" fill="white"/>
<path d="M389 202.972V209.038H26.0742V200.276L59.8032 182.751H359.319L389 202.972Z" fill="#E6E6E6"/>
<path opacity="0.1" d="M389 202.972V209.038H26.0742V200.276L389 202.972Z" fill="white"/>
<path d="M78.0174 233.303H61.827L55.0812 228.585H85.4376L78.0174 233.303Z" fill="black"/>
<path d="M78.0174 252.85H61.827L55.0812 248.132H85.4376L78.0174 252.85Z" fill="black"/>
<path d="M78.0174 280.486H61.827L55.0812 275.767H85.4376L78.0174 280.486Z" fill="black"/>
<path d="M78.0174 308.121H61.827L55.0812 303.403H85.4376L78.0174 308.121Z" fill="black"/>
<path d="M325.589 235.999H341.779L348.525 231.281H318.169L325.589 235.999Z" fill="black"/>
<path d="M325.589 255.546H341.779L348.525 250.828H318.169L325.589 255.546Z" fill="black"/>
<path d="M325.589 283.182H341.779L348.525 278.464H318.169L325.589 283.182Z" fill="black"/>
<path d="M325.589 310.817H341.779L348.525 306.099H318.169L325.589 310.817Z" fill="black"/>
<path d="M336.614 65.8327H200.317C199.64 65.8326 198.97 65.9657 198.344 66.2245C197.719 66.4833 197.15 66.8627 196.672 67.341C196.193 67.8193 195.813 68.3871 195.554 69.012C195.295 69.6369 195.162 70.3067 195.162 70.9831V162.722C195.162 163.398 195.295 164.068 195.554 164.693C195.813 165.318 196.193 165.886 196.672 166.364C197.15 166.842 197.719 167.222 198.344 167.48C198.97 167.739 199.64 167.872 200.317 167.872H252.056L250.118 180.238C250.118 180.238 239.04 186.118 246.829 186.291C254.618 186.464 291.313 186.291 291.313 186.291C291.313 186.291 298.41 186.291 287.159 180.065L285.336 167.872H336.614C337.291 167.872 337.962 167.739 338.587 167.48C339.212 167.222 339.781 166.842 340.259 166.364C340.738 165.886 341.118 165.318 341.377 164.693C341.636 164.068 341.769 163.398 341.769 162.722V70.9831C341.769 70.3067 341.636 69.6369 341.377 69.012C341.118 68.3871 340.738 67.8193 340.259 67.341C339.781 66.8627 339.212 66.4833 338.587 66.2245C337.962 65.9657 337.291 65.8326 336.614 65.8327V65.8327Z" fill="#111126"/>
<path d="M336.836 71.2805H200.095V147.724H336.836V71.2805Z" fill="#F2F2F2"/>
<path d="M268.466 69.724C268.943 69.724 269.331 69.3369 269.331 68.8593C269.331 68.3817 268.943 67.9945 268.466 67.9945C267.988 67.9945 267.6 68.3817 267.6 68.8593C267.6 69.3369 267.988 69.724 268.466 69.724Z" fill="#F2F2F2"/>
<path d="M268.465 164.154C270.282 164.154 271.754 162.683 271.754 160.868C271.754 159.053 270.282 157.582 268.465 157.582C266.649 157.582 265.177 159.053 265.177 160.868C265.177 162.683 266.649 164.154 268.465 164.154Z" fill="#F2F2F2"/>
<path d="M263.341 195.631V197.36H170.219V195.977L170.347 195.631L172.642 189.405H261.437L263.341 195.631Z" fill="black"/>
<path d="M299.177 193.937C299.008 194.662 298.367 195.427 296.92 196.149C291.727 198.744 281.169 195.458 281.169 195.458C281.169 195.458 273.034 194.074 273.034 190.442C273.262 190.286 273.5 190.144 273.747 190.018C275.93 188.864 283.169 186.017 296.003 190.139C296.949 190.436 297.794 190.989 298.443 191.737C298.731 192.019 298.947 192.366 299.075 192.749C299.203 193.131 299.238 193.539 299.177 193.937Z" fill="black"/>
<path opacity="0.1" d="M299.177 193.937C292.821 196.371 287.156 196.552 281.342 192.518C279.143 190.893 276.481 190.017 273.747 190.018C275.93 188.864 283.169 186.017 296.003 190.139C296.949 190.436 297.794 190.989 298.443 191.737C298.731 192.019 298.947 192.366 299.075 192.749C299.203 193.131 299.238 193.539 299.177 193.937Z" fill="white"/>
<path d="M291.208 192.518C292.451 192.518 293.458 192.208 293.458 191.826C293.458 191.444 292.451 191.134 291.208 191.134C289.965 191.134 288.958 191.444 288.958 191.826C288.958 192.208 289.965 192.518 291.208 192.518Z" fill="#F2F2F2"/>
<path opacity="0.1" d="M263.341 195.631V197.36H170.219V195.977L170.347 195.631H263.341Z" fill="white"/>
<path d="M51.7772 8.6695e-05C50.8321 -0.0774459 49.8858 0.13379 49.0635 0.605803C48.2562 1.15823 47.7473 2.12603 47.2279 3.02663C45.2421 6.51108 42.5536 9.54546 39.3328 11.9376C36.9869 13.6548 34.0044 15.7959 34.4057 18.9619C34.6175 20.0075 35.004 21.0099 35.5492 21.9271C37.7134 26.2922 43.619 29.6655 43.0381 34.6465C45.1883 31.0498 42.3123 29.2714 44.4624 25.6748C45.4864 23.9619 47.2652 22.0285 48.8112 23.1042C49.3288 23.4643 49.6687 24.1103 50.2077 24.4263C51.4937 25.1804 52.8619 23.7388 54.0003 22.7177C57.9258 19.1966 63.5083 20.119 68.3933 21.2161C70.6994 21.734 73.2325 22.4136 74.5958 24.6159C76.3882 27.5115 72.8928 30.6388 72.0096 33.9126C71.9375 34.1916 71.9341 34.4838 71.9997 34.7644C72.0653 35.0449 72.1979 35.3054 72.3862 35.5236C72.5745 35.7418 72.8129 35.9112 73.081 36.0173C73.3491 36.1233 73.6389 36.1629 73.9256 36.1327C75.3914 35.9882 77.1277 35.8698 77.2145 35.2271C79.0586 35.2927 81.3182 35.084 82.1084 33.1653C82.3499 32.4062 82.4775 31.6155 82.4872 30.819C82.7772 27.596 84.1462 24.6557 85.0531 21.5882C85.9601 18.5207 86.3544 14.9257 84.8239 12.2061C84.2777 11.3012 83.6021 10.4808 82.8187 9.77097C74.1333 1.37261 62.7139 -0.0123796 51.7772 8.6695e-05Z" fill="#453200"/>
<path d="M44.927 40.9377C44.927 40.9377 46.8159 56.6659 39.8899 57.9242C32.9639 59.1825 46.1863 80.5728 46.1863 80.5728L77.6683 84.3475L70.1126 59.1824C70.1126 59.1824 65.0755 57.2951 68.2237 44.7125C71.3719 32.13 44.927 40.9377 44.927 40.9377Z" fill="#F7C4A7"/>
<path d="M25.723 311.148L28.2418 345.75H41.4638L37.6864 311.148H25.723Z" fill="#F7C4A7"/>
<path d="M122.688 245.719L124.576 274.658L139.058 268.367L133.391 244.461L122.688 245.719Z" fill="#F7C4A7"/>
<path d="M16.2784 179.031C16.2784 179.031 16.9081 215.521 20.6859 227.474C24.4638 239.427 23.8341 240.057 23.2045 241.944C22.5749 243.831 21.9452 242.573 21.9452 245.719C21.9452 248.864 20.6859 298.565 21.9452 302.969C23.2045 307.373 18.1674 314.923 21.9452 315.552C25.723 316.181 43.353 315.552 43.9826 311.777C44.6122 308.002 38.9455 306.744 41.464 304.228C43.9826 301.711 47.7604 250.123 47.7604 250.123L56.5754 214.262L72.946 195.389H107.576L118.28 236.911C118.28 236.911 113.873 248.864 117.021 248.864C120.169 248.864 139.058 252.639 139.058 238.798C139.058 224.958 132.762 184.064 131.502 182.806C130.243 181.548 132.132 177.144 130.243 175.256C128.354 173.369 106.317 160.157 98.1316 157.641C89.9463 155.124 78.4637 152.129 78.4637 152.129L16.2784 179.031Z" fill="#52C0D6"/>
<path d="M139.058 263.334C139.058 263.334 129.614 260.189 125.206 269.626C120.799 279.063 122.688 281.579 122.688 281.579C122.688 281.579 137.169 286.612 139.688 284.096C140.784 283.001 144.263 282.62 147.845 282.54C153.299 282.418 154.751 274.707 149.599 272.911C149.445 272.857 149.29 272.811 149.132 272.771C144.095 271.513 139.058 263.334 139.058 263.334Z" fill="black"/>
<path d="M59.0939 51.3184C69.5261 51.3184 77.9831 42.8683 77.9831 32.4445C77.9831 22.0208 69.5261 13.5707 59.0939 13.5707C48.6617 13.5707 40.2047 22.0208 40.2047 32.4445C40.2047 42.8683 48.6617 51.3184 59.0939 51.3184Z" fill="#F7C4A7"/>
<path d="M34.538 65.7883C34.538 65.7883 65.3903 72.0796 72.946 62.0135C80.5017 51.9475 83.6499 90.3243 83.6499 90.3243L87.4277 130.588L81.761 152.608C81.761 152.608 52.1679 176.515 42.7233 178.402C33.2787 180.29 18.797 181.548 18.797 181.548C18.797 181.548 23.2045 111.715 23.2045 110.456C23.2045 109.198 34.538 65.7883 34.538 65.7883Z" fill="white"/>
<path d="M43.9209 53.9892C43.9209 53.9892 37.0566 50.0601 35.1676 53.8349C33.2787 57.6096 15.6488 67.0465 13.7599 67.0465C11.871 67.0465 17.5377 119.264 15.0192 125.555C12.5006 131.847 0.537462 177.773 7.4635 181.548C14.3895 185.323 9.35241 177.773 16.2784 187.21C23.2045 196.647 57.205 196.647 59.0939 192.872C60.9828 189.097 43.9826 160.787 47.1308 134.363C50.279 107.94 55.3161 71.4504 50.9086 66.4174C46.5011 61.3844 43.9209 53.9892 43.9209 53.9892Z" fill="#242450"/>
<path d="M66.6496 58.2388L67.5267 55.223C67.5267 55.223 93.7241 63.9009 94.9834 69.5631C96.2427 75.2252 95.6131 114.86 91.2056 118.006C86.7981 121.152 80.5017 126.185 84.9092 133.734C89.3167 141.284 94.3538 149.462 98.1316 150.091C101.909 150.721 108.835 155.124 106.947 159.528C105.058 163.932 82.3906 155.754 82.3906 155.754C82.3906 155.754 67.2793 144.429 67.9089 126.814C68.5386 109.198 66.6496 58.2388 66.6496 58.2388Z" fill="#242450"/>
<path d="M88.687 132.476L73.5756 160.787C73.5756 160.787 51.5383 183.435 64.1311 185.952C76.7239 188.468 83.6499 165.19 83.6499 165.19L100.021 141.913L88.687 132.476Z" fill="#F7C4A7"/>
<path d="M52.6974 4.93838C51.936 4.88201 51.1734 5.02981 50.4883 5.3665C49.8689 5.81851 49.3584 6.40309 48.9941 7.07752C47.3147 9.60168 45.1255 11.747 42.5671 13.3757C40.6574 14.5894 38.2295 16.1027 38.5563 18.3405C38.7336 19.0907 39.0493 19.8015 39.4871 20.4362C41.2549 23.5527 41.9587 27.1596 41.4919 30.7113L46.7429 23.0851C47.5764 21.8745 49.0244 20.5079 50.2829 21.2682C50.7043 21.5227 50.981 21.9793 51.4197 22.2027C52.4666 22.7356 53.5804 21.7167 54.5071 20.995C57.7026 18.5064 62.247 19.1583 66.2236 19.9337C68.1009 20.2998 70.1629 20.7801 71.2726 22.3367C73.1169 24.9235 71.1911 28.6612 72.2675 31.6495C72.5688 31.4387 72.8247 31.1697 73.0199 30.8583C73.2152 30.5468 73.346 30.1994 73.4044 29.8366C74.9056 29.883 76.745 29.7355 77.3882 28.3793C77.5839 27.8479 77.6881 27.2872 77.6966 26.721C77.9327 24.443 79.0471 22.3648 79.7854 20.1967C80.5237 18.0286 80.8447 15.4877 79.5988 13.5655C79.143 12.9142 78.5929 12.3341 77.9665 11.8444C70.8962 5.90847 61.6003 4.92957 52.6974 4.93838Z" fill="#453200"/>
<path d="M88.6869 67.0465L94.5534 68.6024C94.5534 68.6024 108.206 103.536 105.058 127.443C101.909 151.35 100.02 146.317 100.02 146.317C100.02 146.317 94.9834 134.992 83.6498 137.509L88.6869 67.0465Z" fill="#242450"/>
<path d="M26.5954 341.177C25.077 343.239 25.3814 346.186 24.0365 348.364C22.8706 350.253 20.6735 351.243 19.2153 352.916C18.7499 353.472 18.3351 354.068 17.9757 354.698C16.623 356.962 15.5235 359.863 16.8558 362.14C17.9275 363.971 20.1802 364.686 22.2462 365.174C24.8574 365.79 27.5706 366.284 30.212 365.813C32.8534 365.342 35.435 363.725 36.3768 361.215C36.5619 360.584 36.7819 359.963 37.0359 359.356C38.4676 356.54 42.9582 356.51 44.4235 353.711C45.4489 351.752 44.5063 349.384 43.5641 347.384L40.6864 341.276C39.7314 339.249 35.8601 340.414 33.8419 339.929C31.2098 339.295 28.4889 338.597 26.5954 341.177Z" fill="black"/>
<path d="M5.57457 145.058L32.0194 185.952C32.0194 185.952 48.39 206.713 53.4272 197.276C58.4643 187.839 35.7973 172.111 35.7973 172.111L18.797 140.655L5.57457 145.058Z" fill="#F7C4A7"/>
<path d="M18.797 68.3048L13.7599 67.0465C13.7599 67.0465 3.68564 70.1922 1.16709 83.4039C-1.35147 96.6155 0.537446 149.462 3.68564 150.091C6.83384 150.721 19.2346 140.89 21.2195 142.974C23.2045 145.058 16.9081 134.363 18.797 128.701C20.6859 123.039 18.797 68.3048 18.797 68.3048Z" fill="#242450"/>
<path d="M255.523 96.3871H239.249V100.302H255.523V96.3871Z" fill="white"/>
<path d="M311.878 96.3871H306.152V100.302H311.878V96.3871Z" fill="white"/>
<path d="M323.33 96.3871H317.604V100.302H323.33V96.3871Z" fill="white"/>
<path d="M300.125 96.3871H261.249V100.302H300.125V96.3871Z" fill="white"/>
<path d="M235.03 121.681H218.757V125.596H235.03V121.681Z" fill="white"/>
<path d="M291.386 121.681H285.66V125.596H291.386V121.681Z" fill="white"/>
<path d="M302.837 121.681H297.112V125.596H302.837V121.681Z" fill="white"/>
<path d="M279.632 121.681H240.756V125.596H279.632V121.681Z" fill="white"/>
<path d="M302.235 105.12H285.961V109.034H302.235V105.12Z" fill="white"/>
<path d="M324.234 105.12H307.961V109.034H324.234V105.12Z" fill="white"/>
<path d="M224.483 105.12H218.757V109.034H224.483V105.12Z" fill="white"/>
<path d="M235.934 105.12H230.208V109.034H235.934V105.12Z" fill="white"/>
<path d="M280.536 105.12H241.66V109.034H280.536V105.12Z" fill="white"/>
<path d="M268.482 113.551H252.208V117.465H268.482V113.551Z" fill="white"/>
<path d="M246.482 113.551H230.208V117.465H246.482V113.551Z" fill="white"/>
<path d="M224.483 113.551H218.757V117.465H224.483V113.551Z" fill="white"/>
<path d="M324.234 113.551H318.508V117.465H324.234V113.551Z" fill="white"/>
<path d="M312.782 113.551H273.906V117.465H312.782V113.551Z" fill="white"/>
</g>
<defs>
<clipPath id="clip0">
<rect width="389" height="366" fill="white"/>
</clipPath>
</defs>
</svg>
