<svg width="416" height="364" viewBox="0 0 416 364" fill="none" xmlns="http://www.w3.org/2000/svg">
<g clip-path="url(#clip0)">
<path opacity="0.2" d="M376.609 130.892H352.598V143.38H376.609V130.892Z" fill="#52C0D6"/>
<path opacity="0.2" d="M378.456 146.155H354.445V158.643H378.456V146.155Z" fill="#52C0D6"/>
<path opacity="0.2" d="M358.601 40.2389H334.591V52.7268H358.601V40.2389Z" fill="#52C0D6"/>
<path opacity="0.2" d="M375.685 54.5769H351.675V67.0648H375.685V54.5769Z" fill="#52C0D6"/>
<path opacity="0.2" d="M329.512 41.1639H305.501V53.6518H329.512V41.1639Z" fill="#52C0D6"/>
<path opacity="0.2" d="M406.622 68.9149H382.612V81.4028H406.622V68.9149Z" fill="#52C0D6"/>
<path opacity="0.2" d="M377.532 69.84H353.522V82.3279H377.532V69.84Z" fill="#52C0D6"/>
<path opacity="0.2" d="M346.596 55.502H322.585V67.9899H346.596V55.502Z" fill="#52C0D6"/>
<path opacity="0.2" d="M405.237 165.118H381.226V177.606H405.237V165.118Z" fill="#52C0D6"/>
<path opacity="0.2" d="M376.147 166.043H352.137V178.531H376.147V166.043Z" fill="#52C0D6"/>
<path d="M60.3725 127.654C60.3725 127.654 94.2134 161.552 75.1112 211.832C56.009 262.112 107.853 345.795 107.853 345.795C107.853 345.795 107.299 345.712 106.269 345.532C36.7683 333.243 2.23482 253.621 40.9009 194.488C55.2518 172.477 67.0446 146.682 60.3725 127.654Z" fill="#52C0D6"/>
<path d="M60.3725 127.654C60.3725 127.654 79.4747 169.207 60.3725 203.1C41.2703 236.993 57.0988 332.142 107.858 345.795" stroke="#35353D" stroke-width="2" stroke-miterlimit="10"/>
<path d="M0.0969696 264.753C0.0969696 264.753 38.7123 258.593 42.2307 293.258C45.7492 327.924 116.488 332.729 116.488 332.729C116.488 332.729 116.026 333.044 115.163 333.613C56.7571 372.001 0.928101 358.075 9.34562 307.083C12.4716 288.124 12.213 269.082 0.0969696 264.753Z" fill="#52C0D6"/>
<path opacity="0.2" d="M0.0969696 264.753C0.0969696 264.753 38.7123 258.593 42.2307 293.258C45.7492 327.924 116.488 332.729 116.488 332.729C116.488 332.729 116.026 333.044 115.163 333.613C56.7571 372.001 0.928101 358.075 9.34562 307.083C12.4716 288.124 12.213 269.082 0.0969696 264.753Z" fill="#F5F5F5"/>
<path d="M0.0969696 264.753C0.0969696 264.753 30.0685 271.344 27.6074 298.642C25.1464 325.94 72.1192 358.681 116.488 332.729" stroke="#535461" stroke-width="2" stroke-miterlimit="10"/>
<path opacity="0.2" d="M24.3014 131.354H0.290894V143.842H24.3014V131.354Z" fill="#52C0D6"/>
<path opacity="0.2" d="M41.3857 145.693H17.3753V158.18H41.3857V145.693Z" fill="#52C0D6"/>
<path opacity="0.2" d="M171.135 0H147.124V12.4879H171.135V0Z" fill="#52C0D6"/>
<path opacity="0.2" d="M360.448 230.333H336.438V242.821H360.448V230.333Z" fill="#52C0D6"/>
<path opacity="0.2" d="M43.2327 160.956H19.2222V173.443H43.2327V160.956Z" fill="#52C0D6"/>
<path opacity="0.2" d="M188.219 14.338H164.209V26.8259H188.219V14.338Z" fill="#52C0D6"/>
<path opacity="0.2" d="M100.488 98.9784H76.478V111.466H100.488V98.9784Z" fill="#52C0D6"/>
<path opacity="0.2" d="M117.573 113.316H93.5624V125.804H117.573V113.316Z" fill="#52C0D6"/>
<path opacity="0.2" d="M163.285 105.454H139.275V117.942H163.285V105.454Z" fill="#52C0D6"/>
<path opacity="0.2" d="M119.42 128.579H95.4093V141.067H119.42V128.579Z" fill="#52C0D6"/>
<path opacity="0.2" d="M392.77 230.333H368.759V242.821H392.77V230.333Z" fill="#52C0D6"/>
<path d="M332.753 180.895C331.198 172.228 330.245 163.464 329.899 154.665C329.592 147.419 327.055 140.446 322.636 134.701C318.217 128.956 312.131 124.72 305.215 122.576C302.694 121.799 299.919 121.073 296.853 120.421C269.979 114.704 261.816 119.695 260.888 120.351C260.102 118.92 259.418 117.435 258.842 115.907C258.796 115.749 258.754 115.592 258.708 115.444C264.027 109.763 267.267 102.444 267.902 94.6817C272.385 90.1305 275.003 84.6358 275.003 78.7202C275.003 73.6326 273.064 68.8594 269.67 64.7291V56.6906C269.67 47.4207 265.994 38.5304 259.45 31.9756C252.906 25.4207 244.031 21.7383 234.776 21.7383H231.946C227.364 21.7383 222.826 22.6424 218.593 24.3989C214.359 26.1554 210.512 28.73 207.272 31.9756C204.032 35.2212 201.462 39.0743 199.708 43.3149C197.955 47.5555 197.052 52.1006 197.052 56.6906V65.3535C193.972 69.3358 192.227 73.8823 192.227 78.711C192.227 84.5017 194.739 89.8854 199.051 94.381C199.641 102.428 203.03 110.013 208.628 115.814C208.817 117.128 209.011 118.538 209.201 120.028L161.133 130.198C161.133 130.198 142.599 130.961 130.659 155.637C120.56 176.538 100.465 230.236 94.5135 246.22C93.4377 249.116 92.8282 250.776 92.8282 250.776C92.8282 250.776 93.0268 250.577 93.4008 250.235L92.8282 251.794C92.8282 251.794 93.1191 251.498 93.6732 251.012C92.8328 257.7 92.7128 269.184 101.458 270.613C108.791 271.811 127.685 272.306 141.957 272.505H142.945C152.407 272.63 159.605 272.63 159.605 272.63V272.505H313.106V270.928C313.108 269.498 312.82 268.082 312.261 266.765L312.473 266.506C313.295 267.593 313.841 268.862 314.066 270.206C314.049 270.337 314.024 270.467 313.992 270.595L314.085 270.359C314.121 270.779 314.09 271.202 313.992 271.612C313.992 271.612 333.686 220.787 333.473 190.436C333.53 187.24 333.289 184.046 332.753 180.895V180.895ZM209.999 126.896C209.745 125.446 209.582 123.982 209.51 122.511C209.51 122.511 209.51 122.483 209.51 122.47C209.681 123.899 209.847 125.379 209.999 126.896ZM150.333 236.068V248.181L142.761 249.805L150.333 236.068Z" fill="url(#paint0_linear)"/>
<path d="M232.583 26.6271C241.837 26.6271 250.713 30.3095 257.257 36.8644C263.8 43.4192 267.477 52.3095 267.477 61.5794V76.4909H197.689V61.5794C197.689 52.3095 201.366 43.4192 207.909 36.8644C214.453 30.3095 223.329 26.6271 232.583 26.6271V26.6271Z" fill="#52C0D6"/>
<path d="M232.828 108.756C254.794 108.756 272.602 96.4991 272.602 81.3796C272.602 66.2601 254.794 54.0033 232.828 54.0033C210.861 54.0033 193.053 66.2601 193.053 81.3796C193.053 96.4991 210.861 108.756 232.828 108.756Z" fill="#459FB1"/>
<path d="M207.33 107.9C207.33 107.9 215.642 151.409 207.33 163.143C199.019 174.877 232.726 179.521 232.726 179.521L267.615 166.811L272.496 135.522C272.496 135.522 251.256 123.543 255.656 99.3438L207.33 107.9Z" fill="#F7C4A7"/>
<path d="M310.308 254.564C310.308 254.564 312.506 264.097 300.547 265.808C293.485 266.848 286.304 266.762 279.27 265.553L276.633 241.609H304.453L310.308 254.564Z" fill="#F7C4A7"/>
<path d="M99.1356 242.363C99.1356 242.363 93.8533 263.865 105.812 265.808C117.771 267.75 161.683 267.764 161.683 267.764V242.326L141.8 246.581L123.137 228.654L99.1356 242.363Z" fill="#F7C4A7"/>
<path opacity="0.1" d="M209.898 121.956L163.165 131.854C163.165 131.854 145.351 132.589 133.882 156.298C122.412 180.007 97.5195 247.719 97.5195 247.719C97.5195 247.719 118.76 226.207 143.643 249.185L160.238 219.122L156.576 266.788H285.161V244.296C285.161 244.296 312.002 258.718 310.054 266.784C310.054 266.784 333.025 207.498 328.062 180.557C326.567 172.228 325.651 163.806 325.319 155.35V155.35C325.026 148.386 322.588 141.683 318.34 136.162C314.093 130.641 308.243 126.572 301.595 124.514C299.175 123.769 296.516 123.071 293.56 122.446C265.985 116.582 258.93 122.446 258.93 122.446C258.93 122.446 253.588 139.856 253.685 147.746C253.805 157.889 239.288 164.614 239.288 164.614C239.288 164.614 217.812 159.48 216.838 155.327C215.863 151.173 208.18 126.845 209.898 121.956Z" fill="black"/>
<path d="M209.898 120.98L163.165 130.878C163.165 130.878 145.351 131.614 133.882 155.322C122.412 179.031 97.5149 246.752 97.5149 246.752C97.5149 246.752 118.755 225.241 143.638 248.218L160.233 218.155L156.571 265.808H285.161V243.32C285.161 243.32 312.002 257.742 310.054 265.808C310.054 265.808 333.025 206.523 328.062 179.581C326.567 171.252 325.651 162.83 325.319 154.374C325.026 147.41 322.588 140.707 318.34 135.186C314.093 129.665 308.243 125.596 301.595 123.538C299.175 122.793 296.516 122.095 293.56 121.471C265.985 115.606 258.93 121.471 258.93 121.471C258.93 121.471 253.588 138.88 253.685 146.77C253.805 156.913 239.288 163.638 239.288 163.638C239.288 163.638 217.812 158.504 216.838 154.351C215.863 150.197 208.18 125.869 209.898 120.98Z" fill="#111126"/>
<path opacity="0.1" d="M257.651 118.904C255.688 113.337 255.248 107.345 256.377 101.55L208.051 110.102C208.051 110.102 208.748 113.76 209.538 119.241C212.66 122.487 216.409 125.062 220.556 126.811C224.703 128.56 229.162 129.445 233.662 129.413C238.162 129.382 242.608 128.434 246.73 126.627C250.853 124.82 254.565 122.193 257.642 118.904H257.651Z" fill="black"/>
<path d="M265.893 93.9693C265.855 102.692 262.397 111.05 256.263 117.242C250.129 123.433 241.812 126.962 233.105 127.068C224.398 127.173 215.998 123.847 209.717 117.806C203.435 111.765 199.776 103.493 199.527 94.7741C199.527 94.5058 199.527 94.2376 199.527 93.9693C199.526 87.7447 201.268 81.6447 204.557 76.3634C207.846 71.082 212.549 66.8315 218.131 64.0954C219.125 63.6082 220.147 63.1704 221.197 62.7819C226.656 60.7715 232.545 60.2231 238.281 61.1908V61.1908C245.632 62.4447 252.347 66.1439 257.341 71.691C262.335 77.2381 265.317 84.3094 265.805 91.7631C265.864 92.4939 265.893 93.2293 265.893 93.9693Z" fill="#F7C4A7"/>
<g opacity="0.1">
<path opacity="0.1" d="M221.146 63.5636L221.192 63.5359C220.142 63.9244 219.12 64.3623 218.126 64.8494C212.544 67.5855 207.842 71.8361 204.553 77.1174C201.264 82.3987 199.521 88.4988 199.522 94.7233C199.522 94.9916 199.522 95.2599 199.522 95.5281C200.554 95.5002 201.569 95.256 202.501 94.8112C210.59 91.0278 215.429 79.4557 217.35 71.3848C218.043 68.4941 218.694 65.2379 221.146 63.5636Z" fill="black"/>
<path opacity="0.1" d="M246.546 64.4933C243.919 63.2845 241.145 62.4277 238.295 61.9448C240.632 62.4836 242.72 63.7972 244.219 65.6727C244.954 66.6736 245.563 67.7609 246.034 68.9103C241.617 66.9759 236.833 66.0258 232.014 66.1256C227.195 66.2254 222.454 67.3729 218.121 69.4885C220.204 74.0627 226.664 76.5557 230.976 78.2254C235.698 80.0508 240.47 81.7205 245.29 83.2344L241.024 79.7656L250.66 81.3011C250.764 79.3801 250.536 77.4555 249.986 75.6122C251.833 77.1015 254.28 77.601 256.284 78.8498C260.038 81.2225 261.603 85.7875 263.649 89.742C264.189 90.7873 264.826 91.8557 265.801 92.5171C265.407 86.5425 263.41 80.7851 260.021 75.8527C256.632 70.9203 251.977 66.9958 246.546 64.4933V64.4933Z" fill="black"/>
</g>
<path d="M221.146 62.8097L221.192 62.7819C220.142 63.1704 219.12 63.6083 218.126 64.0955C212.544 66.8315 207.842 71.0821 204.553 76.3634C201.264 81.6447 199.521 87.7448 199.522 93.9694C199.522 94.2376 199.522 94.5059 199.522 94.7741C200.554 94.7462 201.569 94.502 202.501 94.0572C210.59 90.2739 215.429 78.7017 217.35 70.6308C218.043 67.7586 218.694 64.4886 221.146 62.8097Z" fill="#413300"/>
<path d="M246.546 63.7439C243.919 62.5351 241.145 61.6783 238.295 61.1954C240.632 61.7342 242.72 63.0478 244.219 64.9233C244.954 65.9242 245.563 67.0115 246.034 68.1609C241.617 66.2265 236.833 65.2764 232.014 65.3762C227.195 65.476 222.454 66.6235 218.121 68.7391C220.204 73.3133 226.664 75.8063 230.976 77.476C235.698 79.3014 240.47 80.9711 245.29 82.485L241.024 79.0162L250.66 80.5517C250.764 78.6307 250.536 76.7061 249.986 74.8628C251.833 76.3521 254.28 76.8516 256.284 78.1004C260.038 80.4731 261.603 85.0381 263.649 88.9926C264.189 90.0379 264.826 91.1063 265.801 91.7677C265.407 85.7931 263.41 80.0357 260.021 75.1033C256.632 70.1709 251.977 66.2464 246.546 63.7439V63.7439Z" fill="#453200"/>
<path opacity="0.1" d="M195.736 88.4885C195.736 88.4885 229.905 45.9371 269.434 88.4885L266.018 78.9561C266.018 78.9561 247.47 51.8249 234.296 57.6804C221.123 63.5358 208.185 67.7031 208.185 67.7031L195.736 88.4885Z" fill="black"/>
<path d="M195.736 87.7346C195.736 87.7346 229.905 45.1832 269.434 87.7346L266.018 78.2022C266.018 78.2022 247.47 51.071 234.296 56.9265C221.123 62.7819 208.185 66.9492 208.185 66.9492L195.736 87.7346Z" fill="#337E8D"/>
<path opacity="0.1" d="M167.672 179.401C167.672 179.401 160.353 198.956 170.599 216.555C180.845 234.153 161.572 241.489 161.572 241.489" fill="black"/>
<path opacity="0.1" d="M286.27 161.802C286.27 161.802 298.958 177.935 290.661 192.356C282.363 206.777 282.853 241.489 282.853 241.489" fill="black"/>
<path d="M156.447 255.91H297.494C300.601 255.91 303.581 257.146 305.778 259.347C307.975 261.547 309.209 264.532 309.209 267.644V267.644H144.737C144.737 264.533 145.971 261.549 148.166 259.348C150.362 257.148 153.341 255.911 156.447 255.91V255.91Z" fill="#969696"/>
<path d="M170.798 175.243H283.148C285.513 175.243 287.855 175.709 290.039 176.616C292.224 177.522 294.209 178.851 295.882 180.526C297.554 182.201 298.88 184.189 299.785 186.378C300.69 188.566 301.156 190.912 301.156 193.281V258.597H152.79V193.281C152.79 188.497 154.687 183.909 158.064 180.526C161.441 177.143 166.022 175.243 170.798 175.243V175.243Z" fill="#C4C4C4"/>
<path d="M226.848 229.389C231.701 229.389 235.635 225.449 235.635 220.588C235.635 215.727 231.701 211.786 226.848 211.786C221.995 211.786 218.061 215.727 218.061 220.588C218.061 225.449 221.995 229.389 226.848 229.389Z" fill="white"/>
<path opacity="0.1" d="M197.689 68.5448C197.689 68.5448 231.267 34.9292 267.481 67.9297" stroke="black" stroke-miterlimit="10"/>
<path d="M275.964 66.4034H272.593V85.5469H275.964V66.4034Z" fill="#6A5C99"/>
<path d="M268.095 78.7896C271.177 78.7896 274.132 80.0156 276.31 82.198C278.489 84.3803 279.713 87.3402 279.713 90.4265V91.1758C279.713 94.2621 278.489 97.222 276.31 99.4043C274.132 101.587 271.177 102.813 268.095 102.813V102.813V78.7896Z" fill="#3D3D3D"/>
<path d="M271.092 80.2927C271.092 78.8418 269.918 77.6656 268.469 77.6656C267.021 77.6656 265.847 78.8418 265.847 80.2927V101.314C265.847 102.765 267.021 103.941 268.469 103.941C269.918 103.941 271.092 102.765 271.092 101.314V80.2927Z" fill="#212121"/>
<path d="M188.861 85.9216H192.232V66.778H188.861V85.9216Z" fill="#6A5C99"/>
<path d="M196.729 103.187C193.648 103.187 190.693 101.961 188.514 99.779C186.336 97.5966 185.112 94.6367 185.112 91.5504V90.8011C185.112 89.273 185.412 87.7597 185.996 86.3479C186.58 84.936 187.435 83.6532 188.514 82.5726C189.593 81.492 190.874 80.6349 192.283 80.05C193.693 79.4652 195.203 79.1642 196.729 79.1642V79.1642V103.187Z" fill="#3D3D3D"/>
<path d="M193.732 101.684C193.732 103.135 194.906 104.311 196.355 104.311C197.803 104.311 198.978 103.135 198.978 101.684V80.6627C198.978 79.2118 197.803 78.0356 196.355 78.0356C194.906 78.0356 193.732 79.2118 193.732 80.6627V101.684Z" fill="#212121"/>
<path d="M272.196 45.9417C267.629 36.4324 257.683 24.9342 236.245 24.0138V23.9861H235.986L228.39 24.3468V24.3838C207.095 25.3644 197.195 36.8209 192.643 46.2979C189.61 52.7224 188.001 59.7276 187.924 66.8336L190.546 66.7688L193.169 66.7087C193.282 60.3823 194.735 54.1521 197.431 48.4301C203.212 36.5341 213.85 30.2115 229.046 29.6242L235.764 29.2495C250.97 29.8323 261.613 36.1641 267.389 48.0554C270.09 53.7796 271.545 60.0131 271.66 66.3433L274.283 66.4034L276.905 66.4682C276.83 59.3661 275.223 52.3642 272.196 45.9417V45.9417Z" fill="#292929"/>
<path d="M392.013 267.797H34.298V364H392.013V267.797Z" fill="#D6D6E3"/>
<path opacity="0.1" d="M392.013 274.272H34.298V286.76H392.013V274.272Z" fill="black"/>
<path d="M416 266.409H10.3014V278.897H416V266.409Z" fill="#D6D6E3"/>
</g>
<defs>
<linearGradient id="paint0_linear" x1="213.153" y1="272.653" x2="213.153" y2="21.7383" gradientUnits="userSpaceOnUse">
<stop stop-color="#808080" stop-opacity="0.25"/>
<stop offset="0.54" stop-color="#808080" stop-opacity="0.12"/>
<stop offset="1" stop-color="#808080" stop-opacity="0.1"/>
</linearGradient>
<clipPath id="clip0">
<rect width="416" height="364" fill="white"/>
</clipPath>
</defs>
</svg>
