<svg width="1440" height="235" viewBox="0 0 1440 235" fill="none" xmlns="http://www.w3.org/2000/svg">
<path fill-rule="evenodd" clip-rule="evenodd" d="M0 18.5263L60 11.5263C120 4.52626 240 -10.4737 360 11.5263C480 32.5263 600 90.5263 720 112.526C840 133.526 960 119.526 1080 97.5263C1200 76.5263 1320 47.5263 1380 32.5263L1440 18.5263V234.526H1380C1320 234.526 1200 234.526 1080 234.526C960 234.526 840 234.526 720 234.526C600 234.526 480 234.526 360 234.526C240 234.526 120 234.526 60 234.526H0V18.5263Z" fill="#111126"/>
</svg>
