<svg width="1301" height="273" viewBox="0 0 1301 273" fill="none" xmlns="http://www.w3.org/2000/svg">
<path fill-rule="evenodd" clip-rule="evenodd" d="M0 38.8709L54.2083 45.1987C108.417 51.5265 216.833 65.0861 325.25 84.0695C433.667 103.957 542.083 130.172 650.5 142.828C758.917 155.483 867.333 155.483 975.75 130.172C1084.17 103.957 1192.58 51.5265 1246.79 25.3113L1301 0V273H1246.79C1192.58 273 1084.17 273 975.75 273C867.333 273 758.917 273 650.5 273C542.083 273 433.667 273 325.25 273C216.833 273 108.417 273 54.2083 273H0V38.8709Z" fill="#111126"/>
</svg>
