<svg width="12" height="12" viewBox="0 0 12 12" fill="none" xmlns="http://www.w3.org/2000/svg">
<path d="M11.658 9.42666L8.94801 6.96266C8.8199 6.84623 8.65157 6.78414 8.47854 6.78948C8.30552 6.79483 8.14134 6.86721 8.02067 6.99133L6.42534 8.632C6.04134 8.55866 5.26934 8.318 4.47467 7.52533C3.68001 6.73 3.43934 5.956 3.36801 5.57466L5.00734 3.97866C5.13161 3.85808 5.2041 3.69388 5.20945 3.5208C5.2148 3.34772 5.15259 3.17936 5.03601 3.05133L2.57267 0.341997C2.45603 0.213568 2.29392 0.135666 2.12077 0.124836C1.94762 0.114007 1.77707 0.171102 1.64534 0.283997L0.198672 1.52466C0.0834124 1.64034 0.0146179 1.7943 0.0053382 1.95733C-0.0046618 2.124 -0.195328 6.072 2.86601 9.13466C5.53667 11.8047 8.88201 12 9.80334 12C9.93801 12 10.0207 11.996 10.0427 11.9947C10.2057 11.9855 10.3596 11.9164 10.4747 11.8007L11.7147 10.3533C11.828 10.222 11.8855 10.0516 11.8749 9.87846C11.8644 9.70533 11.7865 9.54319 11.658 9.42666V9.42666Z" fill="black"/>
</svg>
