<svg width="32" height="32" viewBox="0 0 32 32" fill="none" xmlns="http://www.w3.org/2000/svg">
<path d="M15.6678 2.33667C8.09421 2.33361 1.96002 8.46473 1.96002 16.0322C1.96002 22.0163 5.79733 27.1031 11.1414 28.9712C11.8611 29.1519 11.7508 28.6405 11.7508 28.2914V25.9179C7.59502 26.4049 7.42658 23.6547 7.1479 23.1954C6.5844 22.2337 5.25221 21.9887 5.65033 21.5294C6.59665 21.0424 7.56133 21.6519 8.67915 23.3025C9.48765 24.5 11.0648 24.2979 11.8641 24.0988C12.0387 23.3791 12.4123 22.736 12.9268 22.2368C8.62096 21.465 6.82633 18.8374 6.82633 15.7137C6.82633 14.1977 7.32552 12.8043 8.30552 11.6804C7.68077 9.82755 8.36371 8.24117 8.45558 8.00536C10.2349 7.84611 12.0846 9.27936 12.2286 9.39267C13.2392 9.12011 14.3938 8.97617 15.6861 8.97617C16.9846 8.97617 18.1423 9.12623 19.1621 9.40186C19.5081 9.13848 21.2231 7.90736 22.8769 8.05742C22.9657 8.29323 23.6333 9.84286 23.0453 11.6712C24.0376 12.7982 24.5429 14.2039 24.5429 15.7229C24.5429 18.8527 22.736 21.4834 18.4179 22.2429C18.7878 22.6067 19.0814 23.0404 19.2818 23.5189C19.4821 23.9974 19.5851 24.5111 19.5847 25.0298V28.4751C19.6092 28.7507 19.5847 29.0233 20.0441 29.0233C25.4678 27.195 29.3725 22.0714 29.3725 16.0352C29.3725 8.46473 23.2352 2.33667 15.6678 2.33667V2.33667Z" fill="black"/>
</svg>
