<svg width="16" height="16" viewBox="0 0 16 16" fill="none" xmlns="http://www.w3.org/2000/svg">
<path d="M7.99998 1.29993C4.31998 1.29993 1.33331 4.28659 1.33331 7.96659C1.33331 11.6466 4.31998 14.6333 7.99998 14.6333H11.3333V13.2999H7.99998C5.10665 13.2999 2.66665 10.8599 2.66665 7.96659C2.66665 5.07326 5.10665 2.63326 7.99998 2.63326C10.8933 2.63326 13.3333 5.07326 13.3333 7.96659V8.91993C13.3333 9.44659 12.86 9.96659 12.3333 9.96659C11.8066 9.96659 11.3333 9.44659 11.3333 8.91993V7.96659C11.3333 6.12659 9.83998 4.63326 7.99998 4.63326C6.15998 4.63326 4.66665 6.12659 4.66665 7.96659C4.66665 9.80659 6.15998 11.2999 7.99998 11.2999C8.91998 11.2999 9.75998 10.9266 10.36 10.3199C10.7933 10.9133 11.54 11.2999 12.3333 11.2999C13.6466 11.2999 14.6666 10.2333 14.6666 8.91993V7.96659C14.6666 4.28659 11.68 1.29993 7.99998 1.29993V1.29993ZM7.99998 9.96659C6.89331 9.96659 5.99998 9.07326 5.99998 7.96659C5.99998 6.85993 6.89331 5.96659 7.99998 5.96659C9.10665 5.96659 9.99998 6.85993 9.99998 7.96659C9.99998 9.07326 9.10665 9.96659 7.99998 9.96659Z" fill="black"/>
</svg>
