<svg width="27" height="27" viewBox="0 0 27 27" fill="none" xmlns="http://www.w3.org/2000/svg">
<path d="M13.6765 7.14818C9.95122 7.14818 6.94477 10.1547 6.94477 13.88C6.94477 17.6053 9.95122 20.6118 13.6765 20.6118C17.4017 20.6118 20.4082 17.6053 20.4082 13.88C20.4082 10.1547 17.4017 7.14818 13.6765 7.14818ZM13.6765 18.2552C11.2674 18.2552 9.30136 16.2892 9.30136 13.88C9.30136 11.4709 11.2674 9.50481 13.6765 9.50481C16.0856 9.50481 18.0516 11.4709 18.0516 13.88C18.0516 16.2892 16.0856 18.2552 13.6765 18.2552ZM20.6839 5.30357C19.8141 5.30357 19.1117 6.00597 19.1117 6.87576C19.1117 7.74555 19.8141 8.44794 20.6839 8.44794C21.5536 8.44794 22.256 7.74883 22.256 6.87576C22.2563 6.66922 22.2158 6.46467 22.1369 6.2738C22.058 6.08294 21.9422 5.90952 21.7961 5.76348C21.6501 5.61744 21.4767 5.50164 21.2858 5.42272C21.095 5.3438 20.8904 5.30332 20.6839 5.30357V5.30357ZM26.7985 13.88C26.7985 12.0682 26.8149 10.2729 26.7132 8.46435C26.6115 6.36373 26.1323 4.49943 24.5962 2.96335C23.0569 1.42399 21.1959 0.948072 19.0953 0.846324C17.2836 0.744575 15.4882 0.760986 13.6798 0.760986C11.868 0.760986 10.0727 0.744575 8.2642 0.846324C6.16362 0.948072 4.29935 1.42728 2.7633 2.96335C1.22397 4.50271 0.748057 6.36373 0.64631 8.46435C0.544563 10.2761 0.560974 12.0715 0.560974 13.88C0.560974 15.6885 0.544563 17.4872 0.64631 19.2957C0.748057 21.3963 1.22725 23.2606 2.7633 24.7967C4.30263 26.336 6.16362 26.8119 8.2642 26.9137C10.0759 27.0154 11.8713 26.999 13.6798 26.999C15.4915 26.999 17.2868 27.0154 19.0953 26.9137C21.1959 26.8119 23.0602 26.3327 24.5962 24.7967C26.1355 23.2573 26.6115 21.3963 26.7132 19.2957C26.8182 17.4872 26.7985 15.6918 26.7985 13.88V13.88ZM23.9102 21.6195C23.6706 22.2168 23.3818 22.6632 22.919 23.1227C22.4562 23.5855 22.0131 23.8744 21.4158 24.114C19.6894 24.7999 15.59 24.6457 13.6765 24.6457C11.763 24.6457 7.66028 24.7999 5.93386 24.1172C5.33651 23.8776 4.89014 23.5888 4.43064 23.126C3.96785 22.6632 3.67902 22.2201 3.43943 21.6228C2.75674 19.893 2.911 15.7935 2.911 13.88C2.911 11.9665 2.75674 7.8637 3.43943 6.13726C3.67902 5.53989 3.96785 5.09351 4.43064 4.634C4.89342 4.17449 5.33651 3.88238 5.93386 3.64277C7.66028 2.96007 11.763 3.11434 13.6765 3.11434C15.59 3.11434 19.6927 2.96007 21.4191 3.64277C22.0164 3.88238 22.4628 4.17121 22.9223 4.634C23.3851 5.0968 23.6739 5.53989 23.9135 6.13726C24.5962 7.8637 24.4419 11.9665 24.4419 13.88C24.4419 15.7935 24.5962 19.893 23.9102 21.6195Z" fill="black"/>
</svg>
